<svg width="400" height="400" viewBox="0 0 400 400" fill="none" xmlns="http://www.w3.org/2000/svg">
<path d="M287.176 251.536H344.984V206.944H287.176V251.536Z" fill="#EBEBEB"/>
<path d="M291.304 247.64H298.272V239.768H291.304V247.64Z" fill="white"/>
<path d="M327.352 207.056H320.784V216.568H327.352V207.056Z" fill="#FAFAFA"/>
<path d="M327.352 241.888H320.784V251.4H327.352V241.888Z" fill="#FAFAFA"/>
<path d="M301.6 251.84C301.496 251.84 301.416 242.032 301.416 229.936C301.416 217.84 301.496 208.032 301.6 208.032C301.704 208.032 301.784 217.84 301.784 229.936C301.784 242.032 301.704 251.84 301.6 251.84Z" fill="#E0E0E0"/>
<path d="M263.6 328.32H363.344V251.384H263.6V328.32Z" fill="#EBEBEB"/>
<path d="M270.728 321.608H282.744V308.024H270.728V321.608Z" fill="white"/>
<path d="M332.912 251.584H321.584V268H332.912V251.584Z" fill="#FAFAFA"/>
<path d="M332.912 311.672H321.584V328.088H332.912V311.672Z" fill="#FAFAFA"/>
<path d="M288.496 328.848C288.32 328.848 288.176 311.928 288.176 291.056C288.176 270.184 288.32 253.264 288.496 253.264C288.672 253.264 288.808 270.184 288.808 291.056C288.808 311.928 288.672 328.848 288.496 328.848Z" fill="#E0E0E0"/>
<path d="M360.176 91.368L365.52 102.192L377.464 103.928L368.824 112.36L370.864 124.256L360.176 118.64L349.488 124.256L351.528 112.36L342.888 103.928L354.832 102.192L360.176 91.368Z" fill="#EBEBEB"/>
<path d="M42.008 231.176L45.376 238L52.904 239.088L47.456 244.4L48.744 251.904L42.008 248.36L35.272 251.904L36.56 244.4L31.112 239.088L38.64 238L42.008 231.176Z" fill="#EBEBEB"/>
<path d="M46.184 171.728L53.664 186.88L70.384 189.312L58.288 201.104L61.144 217.76L46.184 209.896L31.232 217.76L34.088 201.104L21.984 189.312L38.704 186.88L46.184 171.728Z" fill="#EBEBEB"/>
<path d="M355.416 140.256L358.64 146.792L365.848 147.84L360.632 152.92L361.864 160.096L355.416 156.712L348.968 160.096L350.2 152.92L344.984 147.84L352.192 146.792L355.416 140.256Z" fill="#EBEBEB"/>
<path d="M249.64 34.4561L252.864 40.9841L260.072 42.0321L254.856 47.1201L256.088 54.2961L249.64 50.9041L243.192 54.2961L244.424 47.1201L239.208 42.0321L246.416 40.9841L249.64 34.4561Z" fill="#EBEBEB"/>
<path d="M323.376 104.328L325.488 108.6L330.208 109.288L326.792 112.616L327.6 117.312L323.376 115.096L319.16 117.312L319.968 112.616L316.552 109.288L321.272 108.6L323.376 104.328Z" fill="#EBEBEB"/>
<path d="M128.736 320.088L132.848 328.408L142.032 329.744L135.384 336.224L136.96 345.376L128.736 341.056L120.52 345.376L122.088 336.224L115.44 329.744L124.632 328.408L128.736 320.088Z" fill="#EBEBEB"/>
<path d="M139.584 311.808L141.28 315.248L145.08 315.8L142.328 318.48L142.976 322.264L139.584 320.472L136.192 322.264L136.84 318.48L134.088 315.8L137.888 315.248L139.584 311.808Z" fill="#EBEBEB"/>
<path d="M291.304 279.936L294.92 287.256L303 288.432L297.152 294.128L298.536 302.176L291.304 298.376L284.08 302.176L285.464 294.128L279.616 288.432L287.696 287.256L291.304 279.936Z" fill="#5D46E8"/>
<path d="M308.544 273.448L310.248 276.896L314.048 277.448L311.296 280.136L311.944 283.928L308.544 282.136L305.136 283.928L305.792 280.136L303.032 277.448L306.84 276.896L308.544 273.448Z" fill="#5D46E8"/>
<path d="M285.952 82.928L288.8 74.08C286.086 68.614 285.262 62.402 286.456 56.4173C287.651 50.4325 290.798 45.0132 295.402 41.0084C300.007 37.0035 305.811 34.6393 311.903 34.2862C317.996 33.9331 324.033 35.611 329.07 39.0571C334.107 42.5032 337.858 47.5228 339.736 53.3294C341.615 59.136 341.513 65.4016 339.449 71.1446C337.384 76.8876 333.473 81.7836 328.328 85.0654C323.183 88.3472 317.094 89.8295 311.016 89.28C305.085 88.876 299.474 86.4472 295.12 82.4L285.952 82.928Z" fill="#FAFAFA"/>
<path d="M285.952 82.928L286.56 82.88L288.328 82.752L295.12 82.288C298.487 85.4017 302.633 87.5468 307.12 88.496C308.505 88.8038 309.912 89.0044 311.328 89.096L313.568 89.184C314.32 89.184 315.096 89.096 315.872 89.056C322.89 88.4192 329.393 85.1045 334.032 79.8C336.646 76.8534 338.587 73.3727 339.72 69.6C340.88 65.5685 341.116 61.327 340.408 57.192C340.232 56.1289 339.986 55.0787 339.672 54.048C339.53 53.5259 339.356 53.013 339.152 52.512C338.952 52 338.776 51.488 338.56 50.984C337.669 48.9493 336.541 47.0267 335.2 45.256C334.532 44.3733 333.807 43.5342 333.032 42.744C332.656 42.341 332.255 41.9617 331.832 41.608C331.424 41.248 331.032 40.856 330.6 40.528L329.288 39.552L328.632 39.072L327.928 38.656L326.544 37.856C326.072 37.592 325.576 37.392 325.096 37.152C321.419 35.412 317.399 34.5188 313.331 34.5381C309.264 34.5575 305.252 35.489 301.592 37.264C295.25 40.3099 290.325 45.6818 287.84 52.264C287.704 52.632 287.576 53 287.448 53.36C287.303 53.7152 287.188 54.0818 287.104 54.456C286.92 55.192 286.744 55.92 286.568 56.632C286.325 58.0271 286.159 59.4346 286.072 60.848C285.893 65.4201 286.855 69.9649 288.872 74.072L286.728 80.616L286.16 82.312C286.032 82.696 285.96 82.896 285.96 82.896C285.96 82.896 286.008 82.712 286.128 82.336L286.64 80.656L288.696 74.024V74.088C286.625 69.9733 285.624 65.4035 285.784 60.8C285.859 59.3707 286.017 57.947 286.256 56.536C286.432 55.816 286.616 55.08 286.792 54.336C286.877 53.9577 286.989 53.5861 287.128 53.224C287.264 52.856 287.392 52.488 287.528 52.112C288.864 48.5232 290.931 45.251 293.597 42.5023C296.263 39.7537 299.471 37.5885 303.018 36.1439C306.564 34.6993 310.372 34.0068 314.2 34.11C318.028 34.2133 321.793 35.1102 325.256 36.744C325.744 36.976 326.248 37.184 326.728 37.456L328.136 38.296L328.84 38.72L329.512 39.208L330.84 40.192C331.28 40.536 331.68 40.928 332.096 41.288C332.522 41.6492 332.928 42.0338 333.312 42.44C334.098 43.2464 334.833 44.1014 335.512 45C336.879 46.7809 338.031 48.7169 338.944 50.768C339.16 51.28 339.336 51.808 339.536 52.32C339.748 52.8415 339.927 53.3759 340.072 53.92C340.388 54.9691 340.634 56.0381 340.808 57.12C341.531 61.3164 341.29 65.6222 340.104 69.712C338.968 73.5565 337.005 77.1061 334.352 80.112C329.643 85.4668 323.055 88.8064 315.952 89.44C315.152 89.44 314.352 89.552 313.616 89.552L311.352 89.456C309.922 89.356 308.502 89.1474 307.104 88.832C302.601 87.8458 298.452 85.6496 295.104 82.48H295.168L288.312 82.84L286.568 82.92C286.144 82.928 285.952 82.928 285.952 82.928Z" fill="#263238"/>
<path d="M297.848 60.7999L302.384 56.8639L310.024 64.7119L327.16 50.4399L330.784 54.9599L308.832 72.8319L297.848 60.7999Z" fill="#5D46E8"/>
<path d="M238.488 279.592L85.08 313.784C84.1921 313.987 83.2728 314.012 82.375 313.858C81.4773 313.705 80.6189 313.375 79.8492 312.888C79.0796 312.401 78.4139 311.766 77.8906 311.021C77.3672 310.275 76.9966 309.433 76.8 308.544L27.048 85.1441C26.8498 84.2589 26.8282 83.3433 26.9844 82.4498C27.1406 81.5562 27.4715 80.7023 27.9583 79.9368C28.4451 79.1714 29.078 78.5095 29.821 77.9891C30.564 77.4687 31.4023 77.1 32.288 76.9041L185.696 42.7121C186.582 42.5138 187.498 42.4921 188.392 42.6482C189.286 42.8043 190.14 43.1352 190.906 43.6219C191.673 44.1086 192.335 44.7415 192.856 45.4845C193.378 46.2276 193.747 47.0661 193.944 47.9521L243.728 271.352C243.926 272.237 243.948 273.153 243.792 274.046C243.635 274.94 243.304 275.794 242.818 276.559C242.331 277.325 241.698 277.987 240.955 278.507C240.212 279.027 239.374 279.396 238.488 279.592Z" fill="#E0E0E0"/>
<path d="M238.488 279.592L239 279.448C239.497 279.286 239.977 279.074 240.432 278.816C241.178 278.377 241.837 277.805 242.376 277.128C243.11 276.2 243.593 275.097 243.776 273.928C243.892 273.221 243.892 272.499 243.776 271.792C243.648 271.048 243.448 270.264 243.272 269.448C242.904 267.848 242.472 266.024 242.072 264.088C241.203 260.211 240.203 255.749 239.072 250.704C234.568 230.568 228.056 201.432 220.008 165.424C216.008 147.424 211.592 127.704 206.864 106.528C204.507 95.9467 202.067 85.0134 199.544 73.728C198.291 68.0854 197.016 62.3654 195.72 56.568C195.064 53.672 194.416 50.752 193.752 47.816C193.391 46.3526 192.549 45.0529 191.361 44.1258C190.173 43.1987 188.707 42.6979 187.2 42.704C186.448 42.7207 185.702 42.8281 184.976 43.024L182.736 43.52L178.232 44.528L169.144 46.552L150.648 50.68L112.536 59.2L32.344 77.056C30.6489 77.4317 29.1637 78.4459 28.1968 79.888C27.2299 81.3301 26.8558 83.0893 27.152 84.8C27.88 88.2 28.664 91.608 29.408 95C30.9226 101.773 32.424 108.507 33.912 115.2L42.712 154.728C48.488 180.64 54.056 205.6 59.36 229.44C64.664 253.28 69.696 275.84 74.416 297.048C75.0027 299.715 75.5867 302.339 76.168 304.92C76.464 306.216 76.728 307.528 77.04 308.8C77.376 310.053 78.0646 311.183 79.024 312.056C79.9772 312.916 81.1522 313.493 82.416 313.72C83.0427 313.822 83.6803 313.841 84.312 313.776C84.936 313.696 85.568 313.544 86.192 313.4L93.64 311.744L121.904 305.456L207.2 286.504L230.4 281.368L236.432 280.04L238.488 279.592L236.44 280.072L230.408 281.432L207.208 286.624L121.928 305.688L93.696 312L86.248 313.664C85.624 313.8 85 313.96 84.344 314.048C83.6881 314.115 83.0262 314.093 82.376 313.984C81.0524 313.754 79.8221 313.151 78.83 312.245C77.8378 311.34 77.1252 310.169 76.776 308.872C76.456 307.584 76.192 306.288 75.896 304.992C75.3147 302.395 74.728 299.771 74.136 297.12C69.416 275.944 64.368 253.32 59.056 229.512C53.744 205.704 48.176 180.712 42.392 154.8L33.592 115.28C32.104 108.592 30.6027 101.853 29.088 95.064C28.336 91.672 27.56 88.28 26.824 84.848C26.516 83.0559 26.9102 81.2139 27.9248 79.7048C28.9393 78.1957 30.4961 77.1353 32.272 76.744L112.472 58.864L150.608 50.4L169.096 46.28L178.184 44.256L182.696 43.2L184.936 42.704C185.676 42.5123 186.436 42.4102 187.2 42.4C188.761 42.4037 190.277 42.9269 191.509 43.8873C192.74 44.8476 193.616 46.1904 194 47.704C194.656 50.648 195.312 53.56 195.96 56.464C197.267 62.2667 198.552 67.9787 199.816 73.6C202.317 84.88 204.752 95.8134 207.12 106.4C211.832 127.576 216.216 147.296 220.224 165.304C228.224 201.304 234.704 230.464 239.184 250.608C240.296 255.64 241.288 260.12 242.152 263.992C242.576 265.936 242.952 267.72 243.336 269.36C243.512 270.16 243.712 270.96 243.832 271.704C243.952 272.419 243.952 273.149 243.832 273.864C243.65 275.055 243.159 276.178 242.408 277.12C241.862 277.796 241.198 278.368 240.448 278.808C239.987 279.067 239.499 279.274 238.992 279.424L238.488 279.592Z" fill="#263238"/>
<g opacity="0.3">
<path d="M92.856 305.872L232.632 273.92L228.216 246.528L220.288 231.176L86.576 283.696L92.856 305.872Z" fill="black"/>
</g>
<g opacity="0.3">
<path d="M151.216 50.9041L156.504 59.6321L157.528 64.2641L153.944 65.0641L151.216 50.9041Z" fill="black"/>
</g>
<path d="M35.008 86.4401L83.504 304.04L235.512 270.168L226.84 231.256L187.016 52.5601L35.008 86.4401Z" fill="white"/>
<path d="M35.008 86.44L187.008 52.432H187.136V52.568C200.624 113.04 217.448 188.504 235.656 270.168V270.336H235.496L83.496 304.2H83.352V304.048C54.8 175.552 35.296 87.744 35 86.448C35.296 87.776 54.928 175.56 83.648 304.048L83.464 303.936L235.464 270.04L235.336 270.24C217.152 188.592 200.344 113.128 186.88 52.64L187.04 52.744L35.008 86.44Z" fill="#263238"/>
<path d="M77.8119 60.5486L144.848 45.6134C146.159 45.3213 147.532 45.5619 148.666 46.2824C149.799 47.0028 150.6 48.144 150.892 49.4549L154.765 66.8368L77.8273 83.978L73.9582 66.6118C73.8109 65.9605 73.7939 65.2865 73.9081 64.6287C74.0223 63.9708 74.2655 63.342 74.6237 62.7785C74.9819 62.215 75.448 61.7279 75.9951 61.3452C76.5423 60.9625 77.1597 60.6918 77.8119 60.5486Z" fill="#263238"/>
<path d="M119.256 42.52L99.68 46.88L105.704 63.152L120.448 59.864L119.256 42.52Z" fill="#263238"/>
<path d="M144.848 45.6C144.848 45.688 129.88 49.104 111.376 53.232C92.872 57.36 77.84 60.648 77.816 60.56C77.792 60.472 92.784 57.056 111.304 52.928C129.824 48.8 144.8 45.536 144.848 45.6Z" fill="#455A64"/>
<path d="M78.768 80.0001C78.68 80.0001 77.904 76.8801 77.04 72.9921C76.176 69.1041 75.536 65.9281 75.632 65.9041C75.728 65.8801 76.496 69.0241 77.36 72.9201C78.224 76.8161 78.856 80.0001 78.768 80.0001Z" fill="#455A64"/>
<path d="M151.096 62.112C150.453 60.0075 149.919 57.8714 149.496 55.712C148.967 53.6015 148.545 51.4654 148.232 49.312C148.873 51.4033 149.407 53.5261 149.832 55.672C150.363 57.7957 150.785 59.9452 151.096 62.112Z" fill="#455A64"/>
<path d="M148.048 65.912C148.048 66 132.68 69.504 113.688 73.736C94.696 77.968 79.288 81.336 79.248 81.24C79.208 81.144 94.608 77.648 113.648 73.416C132.688 69.184 148 65.824 148.048 65.912Z" fill="#455A64"/>
<path d="M107.56 129.208C107.56 129.304 97.2 131.688 84.36 134.552C71.52 137.416 61.16 139.648 61.104 139.56C61.048 139.472 71.504 137.08 84.304 134.224C97.104 131.368 107.536 129.12 107.56 129.208Z" fill="#263238"/>
<path d="M184.928 120.496C184.928 120.592 157.832 126.712 124.368 134.168C90.904 141.624 63.744 147.6 63.728 147.512C63.712 147.424 90.816 141.296 124.296 133.84C157.776 126.384 184.912 120.408 184.928 120.496Z" fill="#263238"/>
<path d="M186.6 128C186.6 128.088 159.496 134.208 126.032 141.672C92.568 149.136 65.416 155.104 65.392 155.008C65.368 154.912 92.488 148.8 125.96 141.344C159.432 133.888 186.576 127.888 186.6 128Z" fill="#263238"/>
<path d="M188.264 135.456C188.264 135.544 161.168 141.664 127.704 149.12C94.24 156.576 67.08 162.56 67.056 162.464C67.032 162.368 94.152 156.256 127.632 148.792C161.112 141.328 188.24 135.368 188.264 135.456Z" fill="#263238"/>
<path d="M189.928 142.936C189.928 143.024 162.832 149.144 129.368 156.6C95.904 164.056 68.744 170.032 68.728 169.944C68.712 169.856 95.816 163.736 129.296 156.272C162.776 148.808 189.912 142.84 189.928 142.936Z" fill="#263238"/>
<path d="M191.6 150.4C191.6 150.496 164.496 156.616 131.032 164.072C97.568 171.528 70.4 177.512 70.4 177.424C70.4 177.336 97.496 171.216 130.968 163.752C164.44 156.288 191.576 150.32 191.6 150.4Z" fill="#263238"/>
<path d="M93.896 203.048C93.8635 202.968 93.8393 202.885 93.824 202.8L93.648 202.088C93.496 201.44 93.28 200.536 93.016 199.408C92.48 197.096 91.728 193.848 90.832 189.96L91.008 190.072L77.888 193.016C77.888 193.016 78.128 192.64 78.016 192.816V192.872V192.984L78.064 193.208L78.168 193.656L78.36 194.544C78.496 195.136 78.624 195.72 78.752 196.304C79.008 197.456 79.264 198.592 79.504 199.696C79.992 201.896 80.448 203.976 80.872 205.888L80.696 205.776L90.176 203.736L92.872 203.176L93.592 203.04L93.848 202.992C93.848 202.992 93.784 202.992 93.624 203.064L92.944 203.232L90.304 203.856L80.8 206.12H80.656V205.976L79.264 199.792C79.016 198.688 78.76 197.552 78.464 196.4C78.336 195.816 78.2 195.232 78.072 194.64C78 194.352 77.936 194.048 77.872 193.752L77.768 193.304L77.72 193.08V192.968V192.912V192.872C77.608 193.056 77.872 192.632 77.848 192.672L90.976 189.768H91.12V189.912L93.184 199.512C93.416 200.632 93.6 201.528 93.736 202.168C93.792 202.456 93.832 202.68 93.872 202.864C93.888 202.924 93.896 202.986 93.896 203.048Z" fill="#263238"/>
<path d="M191.417 170.704L99.885 191.097L101.586 198.734L193.118 178.341L191.417 170.704Z" fill="#E0E0E0"/>
<path d="M98.968 225.816C98.9379 225.732 98.9138 225.647 98.896 225.56C98.848 225.376 98.792 225.136 98.72 224.848C98.568 224.2 98.352 223.304 98.088 222.176C97.552 219.856 96.8 216.576 95.904 212.72L96.08 212.832L82.96 215.776C82.96 215.824 83.2 215.4 83.088 215.584V215.624V215.68V215.792L83.136 216.016L83.24 216.464C83.304 216.768 83.368 217.064 83.44 217.36L83.824 219.112C84.08 220.272 84.336 221.4 84.576 222.504C85.064 224.704 85.52 226.784 85.944 228.696L85.768 228.584L95.256 226.552L97.944 225.992L98.664 225.848C98.7475 225.825 98.8334 225.811 98.92 225.808L98.704 225.872L98.016 226.04L95.376 226.672L85.832 228.872H85.688V228.728L84.296 222.544C84.048 221.44 83.792 220.304 83.496 219.152C83.368 218.576 83.232 217.984 83.104 217.4C83.04 217.104 82.968 216.808 82.904 216.504L82.8 216.056L82.752 215.832V215.72V215.624L82.88 215.416L96 212.552H96.144V212.688C96.992 216.632 97.744 219.888 98.208 222.288C98.44 223.408 98.624 224.304 98.76 224.944C98.816 225.232 98.856 225.456 98.896 225.64C98.9275 225.695 98.9517 225.754 98.968 225.816Z" fill="#263238"/>
<path d="M196.485 193.473L104.953 213.865L106.654 221.502L198.186 201.109L196.485 193.473Z" fill="#E0E0E0"/>
<path d="M104.04 248.576C104.04 248.576 104.04 248.48 103.968 248.32C103.896 248.16 103.864 247.896 103.792 247.608C103.64 246.96 103.424 246.064 103.16 244.936C102.624 242.624 101.872 239.336 100.976 235.48L101.152 235.592L88 238.536C88 238.584 88.24 238.16 88.128 238.344V238.4V238.456V238.568L88.176 238.792L88.28 239.24C88.344 239.544 88.408 239.84 88.48 240.136L88.864 241.888C89.12 243.048 89.376 244.176 89.616 245.28L90.984 251.472L90.808 251.368L100.296 249.328L102.984 248.768L103.704 248.624C103.789 248.615 103.875 248.615 103.96 248.624L103.744 248.688L103.056 248.856L100.416 249.488L90.872 251.688H90.728V251.544C90.304 249.64 89.832 247.544 89.336 245.36C89.088 244.256 88.832 243.128 88.536 241.968C88.408 241.392 88.272 240.808 88.144 240.216C88.08 239.92 88.008 239.624 87.944 239.328L87.848 238.88L87.792 238.656V238.536V238.4C87.68 238.576 87.944 238.152 87.92 238.2L101.048 235.296H101.192V235.44L103.256 245.04C103.488 246.16 103.672 247.056 103.808 247.704C103.864 247.984 103.912 248.208 103.944 248.392C103.984 248.449 104.017 248.511 104.04 248.576Z" fill="#263238"/>
<path d="M201.563 216.241L110.031 236.633L111.732 244.27L203.264 223.877L201.563 216.241Z" fill="#E0E0E0"/>
<path d="M81.288 198.352L82.664 196.184L86.752 198.456L92.016 190.52L94.048 191.928L87.264 201.928L81.288 198.352Z" fill="#5D46E8"/>
<path d="M86.192 220.352L87.568 218.184L91.656 220.456L96.912 212.52L98.952 213.928L92.16 223.92L86.192 220.352Z" fill="#5D46E8"/>
<path d="M91.224 242.904L92.6 240.744L96.68 243.016L101.944 235.08L103.976 236.48L97.192 246.48L91.224 242.904Z" fill="#5D46E8"/>
<path d="M133.12 271.2C133.12 271.296 125.408 273.096 115.856 275.2C106.304 277.304 98.544 278.976 98.528 278.888C98.512 278.8 106.232 277 115.784 274.888C125.336 272.776 133.096 271.12 133.12 271.2Z" fill="#263238"/>
<path d="M150.352 267.088C148.264 267.731 146.144 268.265 144 268.688C141.889 269.213 139.753 269.632 137.6 269.944C139.686 269.302 141.803 268.768 143.944 268.344C147.456 267.568 150.336 267 150.352 267.088Z" fill="#263238"/>
<path d="M207.424 249.128C207.424 249.216 200.488 250.848 191.896 252.76C183.304 254.672 176.312 256.152 176.296 256.064C176.28 255.976 183.224 254.352 191.824 252.432C200.424 250.512 207.408 249.04 207.424 249.128Z" fill="#263238"/>
<path d="M200 270.184C200 270.184 200.072 269.968 200.152 269.552C200.258 268.937 200.225 268.305 200.056 267.704C199.771 266.753 199.402 265.829 198.952 264.944C198.314 263.769 197.94 262.47 197.856 261.136C197.875 260.315 198.065 259.508 198.415 258.765C198.765 258.022 199.267 257.361 199.888 256.824C200.616 256.22 201.486 255.812 202.416 255.64C203.346 255.468 204.304 255.537 205.2 255.84C206.183 256.139 207.061 256.714 207.728 257.496C208.083 257.917 208.294 258.442 208.328 258.992C208.337 259.288 208.251 259.579 208.083 259.822C207.914 260.065 207.672 260.248 207.392 260.344C206.869 260.513 206.334 260.644 205.792 260.736L204.192 261.064C203.12 261.28 202.032 261.472 200.912 261.616C198.743 261.929 196.541 261.942 194.368 261.656C193.386 261.445 192.361 261.61 191.496 262.12C190.809 262.813 190.226 263.603 189.768 264.464C189.489 264.888 189.103 265.231 188.648 265.456C188.185 265.66 187.663 265.683 187.184 265.52C186.361 265.154 185.578 264.703 184.848 264.176C184.509 263.951 184.123 263.806 183.72 263.752C183.343 263.71 182.963 263.804 182.648 264.016C182.095 264.522 181.637 265.124 181.296 265.792C180.932 266.365 180.435 266.842 179.847 267.182C179.259 267.522 178.598 267.715 177.92 267.744C176.894 267.785 175.891 267.43 175.12 266.752C174.635 266.333 174.255 265.807 174.008 265.216C173.922 265.013 173.86 264.801 173.824 264.584C173.824 264.584 173.896 264.8 174.072 265.192C174.331 265.757 174.717 266.256 175.2 266.648C175.952 267.285 176.919 267.611 177.904 267.56C178.551 267.527 179.18 267.337 179.738 267.007C180.295 266.676 180.764 266.216 181.104 265.664C181.456 264.964 181.933 264.335 182.512 263.808C182.876 263.555 183.318 263.439 183.76 263.48C184.198 263.545 184.617 263.7 184.992 263.936C185.71 264.444 186.477 264.881 187.28 265.24C187.691 265.378 188.139 265.358 188.536 265.184C188.943 264.982 189.284 264.668 189.52 264.28C189.995 263.396 190.599 262.587 191.312 261.88C191.755 261.564 192.274 261.371 192.816 261.32C193.348 261.264 193.884 261.264 194.416 261.32C196.565 261.599 198.742 261.585 200.888 261.28C201.992 261.136 203.072 260.936 204.144 260.728L205.744 260.408C206.258 260.313 206.765 260.187 207.264 260.032C207.483 259.962 207.674 259.823 207.806 259.636C207.939 259.448 208.007 259.222 208 258.992C207.964 258.513 207.779 258.057 207.472 257.688C206.841 256.937 206.008 256.382 205.072 256.088C204.224 255.8 203.316 255.732 202.434 255.892C201.552 256.052 200.726 256.433 200.032 257C199.436 257.507 198.953 258.134 198.614 258.839C198.275 259.545 198.088 260.314 198.064 261.096C198.136 262.4 198.485 263.674 199.088 264.832C199.531 265.73 199.887 266.667 200.152 267.632C200.308 268.25 200.322 268.896 200.192 269.52C200.154 269.748 200.09 269.971 200 270.184Z" fill="#263238"/>
<path d="M216.536 259.944C216.401 259.998 216.262 260.041 216.12 260.072L214.904 260.36L210.44 261.392C206.68 262.272 201.48 263.504 195.76 264.952C190.04 266.4 184.88 267.8 181.16 268.824L176.744 270.04L175.536 270.36C175.397 270.403 175.256 270.436 175.112 270.456C175.241 270.386 175.378 270.332 175.52 270.296L176.704 269.92C177.736 269.592 179.232 269.12 181.088 268.6C184.808 267.512 189.952 266.08 195.68 264.6C201.408 263.12 206.608 261.952 210.392 261.144C212.28 260.736 213.816 260.416 214.88 260.208L216.104 259.976C216.247 259.952 216.391 259.942 216.536 259.944Z" fill="#263238"/>
<path d="M150.918 84.4059L88.7856 98.2487L91.3864 109.922L153.519 96.0797L150.918 84.4059Z" fill="#E0E0E0"/>
<path d="M209.696 273.848L229.768 379.896L248.112 346L282.88 366.408L245.976 263.144L209.696 273.848Z" fill="#5D46E8"/>
<g opacity="0.3">
<path d="M216.448 309.512C218.359 309.872 220.329 309.762 222.188 309.192C224.047 308.622 225.739 307.609 227.12 306.24C228.952 304.352 230.168 301.776 232.472 300.512C234.544 299.376 237.096 299.536 239.376 300.168C241.656 300.8 243.8 301.848 246.08 302.44C248.33 303.013 250.671 303.133 252.967 302.792C255.264 302.452 257.47 301.658 259.456 300.456L253.664 284.376L226.784 281.016L213.984 296.416L216.448 309.512Z" fill="black"/>
</g>
<path d="M246.808 341.792C246.696 341.792 243.704 330.8 240.128 317.192C236.552 303.584 233.728 292.512 233.856 292.488C233.984 292.464 236.952 303.464 240.528 317.088C244.104 330.712 246.92 341.76 246.808 341.792Z" fill="#263238"/>
<path d="M212.632 279.36L192.56 385.408L174.216 351.52L139.448 371.92L176.352 268.656L212.632 279.36Z" fill="#5D46E8"/>
<g opacity="0.3">
<path d="M165.312 299.544C165.312 299.544 171.024 304.24 177.832 302.08C184.64 299.92 188.872 299.456 192.56 302.08C196.248 304.704 206.224 313.24 206.224 313.24L208.536 301.008L195.136 282.608L181.152 285.432L171.2 286.4L167.496 293.416L165.312 299.544Z" fill="black"/>
</g>
<path d="M330.32 183.632C330.32 191.24 320.6 197.792 319.176 204.984C317.712 212.392 324.16 222.16 321.336 228.984C318.512 235.808 306.936 238.256 302.832 244.424C298.728 250.592 300.888 262.144 295.632 267.408C290.376 272.672 278.832 270.456 272.648 274.608C266.464 278.76 264.144 290.232 257.208 293.112C250.392 295.936 240.624 289.488 233.208 290.952C226.008 292.376 219.464 302.096 211.856 302.096C204.248 302.096 197.688 292.376 190.496 290.952C183.088 289.488 173.32 295.936 166.496 293.112C159.672 290.288 157.232 278.712 151.064 274.608C144.896 270.504 133.344 272.664 128.072 267.408C122.8 262.152 125.024 250.608 120.872 244.424C116.72 238.24 105.248 235.92 102.376 228.984C99.504 222.048 106 212.4 104.536 204.984C103.112 197.784 93.384 191.24 93.384 183.632C93.384 176.024 103.112 169.464 104.536 162.272C106 154.864 99.544 145.096 102.376 138.272C105.208 131.448 116.776 129 120.872 122.84C124.968 116.68 122.816 105.12 128.072 99.848C133.328 94.576 144.872 96.8 151.064 92.648C157.256 88.496 159.56 77.024 166.496 74.152C173.432 71.28 183.08 77.776 190.496 76.312C197.696 74.888 204.248 65.16 211.856 65.16C219.464 65.16 226.016 74.888 233.208 76.312C240.616 77.776 250.384 71.32 257.208 74.152C264.144 77.024 266.48 88.552 272.648 92.648C278.816 96.744 290.368 94.592 295.632 99.848C300.896 105.104 298.68 116.648 302.832 122.84C306.984 129.032 318.456 131.336 321.336 138.272C324.216 145.208 317.712 154.856 319.176 162.272C320.6 169.464 330.32 176 330.32 183.632Z" fill="#5D46E8"/>
<path d="M184.136 117.224C184.136 117.224 184.048 117.12 183.92 116.896C183.792 116.672 183.592 116.312 183.376 115.92C182.904 115.072 182.256 113.824 181.488 112.272C179.944 109.168 177.944 104.8 176.016 99.872C174.088 94.944 172.608 90.368 171.64 87.072C171.16 85.4 170.792 84.048 170.56 83.072C170.456 82.64 170.368 82.272 170.304 81.984C170.263 81.8601 170.241 81.7305 170.24 81.6C170.302 81.7166 170.35 81.8401 170.384 81.968L170.712 83.032C171.024 84.016 171.432 85.344 171.92 86.952C172.96 90.256 174.488 94.792 176.4 99.752C178.312 104.712 180.28 109.04 181.752 112.176L183.52 115.88L183.992 116.888C184.05 116.995 184.098 117.108 184.136 117.224Z" fill="#263238"/>
<path d="M194.68 113.216C194.54 112.937 194.435 112.641 194.368 112.336C194.2 111.76 193.976 110.92 193.712 109.88C193.184 107.808 192.528 104.912 191.936 101.696C191.344 98.48 190.928 95.544 190.688 93.416C190.56 92.352 190.48 91.488 190.432 90.888C190.395 90.5797 190.395 90.2682 190.432 89.96C190.524 90.257 190.586 90.5625 190.616 90.872L191 93.376C191.32 95.496 191.8 98.416 192.368 101.624C192.936 104.832 193.568 107.728 194.016 109.816C194.232 110.792 194.408 111.624 194.552 112.296C194.625 112.598 194.668 112.906 194.68 113.216Z" fill="#263238"/>
<path d="M213.28 111.368C213.16 111.368 212.864 102.392 212.616 91.328C212.368 80.264 212.256 71.28 212.368 71.272C212.48 71.264 212.784 80.24 213.032 91.32C213.28 102.4 213.392 111.368 213.28 111.368Z" fill="#263238"/>
<path d="M232 92.928C232.112 92.928 230.816 97.448 229.112 102.952C227.408 108.456 225.912 112.88 225.832 112.848C225.752 112.816 227.016 108.328 228.72 102.824C230.424 97.32 231.88 92.896 232 92.928Z" fill="#263238"/>
<path d="M239.632 116.12C239.648 115.988 239.683 115.858 239.736 115.736L240.096 114.68C240.416 113.768 240.896 112.456 241.536 110.84C242.792 107.64 244.584 103.168 246.632 98.288C248.68 93.408 250.584 89.016 251.984 85.848C252.672 84.312 253.24 83.048 253.672 82.104L254.144 81.096C254.264 80.872 254.328 80.752 254.344 80.76C254.315 80.8859 254.275 81.0091 254.224 81.128L253.816 82.168L252.256 85.968C250.888 89.216 249.056 93.6 247.016 98.456C244.976 103.312 243.168 107.696 241.808 110.952L240.248 114.744L239.808 115.768C239.764 115.892 239.705 116.01 239.632 116.12Z" fill="#263238"/>
<path d="M249.6 121.336C249.722 121.053 249.874 120.785 250.056 120.536C250.376 120.024 250.856 119.296 251.448 118.408C252.648 116.64 254.376 114.224 256.384 111.648C258.392 109.072 260.32 106.848 261.744 105.248C262.456 104.448 263.048 103.816 263.464 103.384C263.664 103.144 263.893 102.929 264.144 102.744C263.989 103.017 263.801 103.27 263.584 103.496C263.152 104.024 262.608 104.672 261.984 105.44C260.616 107.088 258.736 109.368 256.728 111.944C254.72 114.52 252.968 116.896 251.704 118.624L250.208 120.664C250.029 120.909 249.826 121.134 249.6 121.336Z" fill="#263238"/>
<path d="M264.176 133.256C264.096 133.176 270.432 127.16 278.312 119.824C286.192 112.488 292.656 106.608 292.712 106.688C292.768 106.768 286.464 112.792 278.576 120.128C270.688 127.464 264.256 133.344 264.176 133.256Z" fill="#263238"/>
<path d="M289.6 135.744C288.829 136.232 288.027 136.67 287.2 137.056C285.696 137.856 283.656 138.968 281.4 140.256C279.144 141.544 277.064 142.616 275.52 143.336C274.72 143.696 274.128 143.976 273.68 144.136C273.461 144.25 273.227 144.331 272.984 144.376C273.755 143.888 274.557 143.45 275.384 143.064C276.888 142.264 278.928 141.152 281.184 139.864C283.44 138.576 285.52 137.464 287.064 136.784C287.864 136.424 288.456 136.144 288.904 135.984C289.121 135.867 289.356 135.786 289.6 135.744Z" fill="#263238"/>
<path d="M313.112 145.496C313.152 145.608 305.616 148.36 296.312 151.648C287.008 154.936 279.384 157.504 279.352 157.4C279.32 157.296 286.84 154.536 296.152 151.248C305.464 147.96 313.072 145.392 313.112 145.496Z" fill="#263238"/>
<path d="M320.6 188.272C320.6 188.384 312.4 187.704 302.312 186.744C292.224 185.784 284.048 184.912 284.064 184.792C284.08 184.672 292.256 185.368 302.352 186.328C312.448 187.288 320.608 188.16 320.6 188.272Z" fill="#263238"/>
<path d="M314.576 226.64C314.528 226.744 306.872 223.224 297.48 218.792C288.088 214.36 280.512 210.672 280.56 210.568C280.608 210.464 288.264 213.976 297.656 218.416C307.048 222.856 314.624 226.536 314.576 226.64Z" fill="#263238"/>
<path d="M289.392 263.144C289.304 263.216 283.792 256.808 277.064 248.84C270.336 240.872 264.96 234.336 265.064 234.264C265.168 234.192 270.664 240.592 277.392 248.568C284.12 256.544 289.48 263.064 289.392 263.144Z" fill="#263238"/>
<path d="M268.368 268C268.119 267.723 267.897 267.423 267.704 267.104C267.296 266.512 266.72 265.64 266.032 264.56C264.64 262.392 262.776 259.36 260.808 255.96C258.84 252.56 257.16 249.424 256.008 247.16C255.424 246.016 254.952 245.088 254.648 244.44C254.467 244.111 254.317 243.765 254.2 243.408C254.426 243.707 254.624 244.025 254.792 244.36C255.176 245.064 255.672 245.96 256.272 247.024C257.512 249.272 259.24 252.376 261.2 255.776C263.16 259.176 264.984 262.224 266.312 264.424C266.936 265.48 267.464 266.352 267.872 267.04C268.072 267.341 268.239 267.663 268.368 268Z" fill="#263238"/>
<path d="M255.312 286.32C255.312 286.32 255.232 286.216 255.104 285.992L254.584 285.016C254.128 284.16 253.512 282.912 252.776 281.36C251.304 278.248 249.408 273.88 247.608 268.936C245.808 263.992 244.448 259.432 243.608 256.136C243.168 254.472 242.808 253.112 242.632 252.176C242.544 251.744 242.472 251.376 242.408 251.088C242.376 250.962 242.357 250.834 242.352 250.704C242.417 250.818 242.463 250.943 242.488 251.072L242.792 252.136C243.072 253.128 243.44 254.448 243.888 256.056C244.832 259.36 246.232 263.904 248.032 268.856C249.832 273.808 251.672 278.152 253.08 281.296L254.76 285C254.936 285.4 255.088 285.736 255.216 286.008C255.261 286.108 255.293 286.212 255.312 286.32Z" fill="#263238"/>
<path d="M228.864 273.448C228.691 272.528 228.576 271.598 228.52 270.664C228.336 268.944 228.04 266.568 227.608 263.968C227.176 261.368 226.672 259.032 226.288 257.344C226.037 256.44 225.844 255.521 225.712 254.592C225.831 254.815 225.922 255.051 225.984 255.296C226.144 255.76 226.344 256.432 226.576 257.272C227.032 258.944 227.576 261.272 228.016 263.904C228.399 266.134 228.666 268.382 228.816 270.64C228.872 271.504 228.904 272.24 228.904 272.696C228.925 272.947 228.911 273.2 228.864 273.448Z" fill="#263238"/>
<path d="M211.56 296.48C211.541 296.345 211.541 296.207 211.56 296.072C211.56 295.752 211.56 295.36 211.56 294.896C211.56 293.872 211.56 292.392 211.56 290.568C211.624 286.912 211.792 281.872 212.08 276.312C212.368 270.752 212.728 265.712 213.024 262.072C213.168 260.248 213.304 258.776 213.408 257.76C213.464 257.296 213.504 256.904 213.536 256.592C213.545 256.453 213.572 256.316 213.616 256.184C213.635 256.322 213.635 256.462 213.616 256.6C213.616 256.912 213.616 257.304 213.56 257.776C213.496 258.856 213.416 260.312 213.312 262.088C213.096 265.792 212.808 270.8 212.512 276.328C212.216 281.856 212.008 286.928 211.872 290.576C211.808 292.352 211.752 293.776 211.712 294.896C211.712 295.368 211.664 295.752 211.648 296.072C211.639 296.212 211.609 296.349 211.56 296.48Z" fill="#263238"/>
<path d="M197.496 256.184C197.49 256.873 197.41 257.56 197.256 258.232C197.048 259.48 196.712 261.2 196.272 263.08C195.832 264.96 195.368 266.656 195 267.88C194.84 268.549 194.607 269.199 194.304 269.816C194.375 269.133 194.512 268.457 194.712 267.8L195.864 263C196.28 261.2 196.664 259.568 196.968 258.2C197.079 257.513 197.256 256.838 197.496 256.184Z" fill="#263238"/>
<path d="M172.064 244C171.016 245.733 169.848 247.39 168.568 248.96C167.394 250.612 166.114 252.186 164.736 253.672C165.782 251.938 166.95 250.28 168.232 248.712C169.401 247.056 170.681 245.482 172.064 244Z" fill="#263238"/>
<path d="M158.728 235.008C158.808 235.08 153.848 240.912 147.64 248.024C141.432 255.136 136.32 260.824 136.232 260.768C136.144 260.712 141.112 254.864 147.32 247.752C153.528 240.64 158.64 234.928 158.728 235.008Z" fill="#263238"/>
<path d="M152.048 225.08C150.086 226.972 148.027 228.761 145.88 230.44C142.4 233.304 139.52 235.56 139.48 235.472C141.443 233.584 143.502 231.798 145.648 230.12C147.695 228.334 149.831 226.652 152.048 225.08Z" fill="#263238"/>
<path d="M144.24 210.112C144.288 210.216 137.376 213.656 128.792 217.784C120.208 221.912 113.224 225.184 113.168 225.08C113.112 224.976 120.032 221.544 128.616 217.408C137.2 213.272 144.192 210.008 144.24 210.112Z" fill="#263238"/>
<path d="M141.104 202.648C140.874 202.749 140.632 202.819 140.384 202.856C139.912 202.968 139.232 203.112 138.392 203.264C136.704 203.584 134.352 203.936 131.744 204.2C129.136 204.464 126.76 204.576 125.04 204.6C124.184 204.6 123.488 204.6 123.008 204.6C122.758 204.616 122.507 204.592 122.264 204.528C123.182 204.402 124.106 204.33 125.032 204.312C126.744 204.208 129.104 204.048 131.704 203.784C134.304 203.52 136.648 203.216 138.344 202.984C139.255 202.807 140.177 202.695 141.104 202.648Z" fill="#263238"/>
<path d="M138.568 185.408C138.102 185.447 137.634 185.447 137.168 185.408L133.36 185.216C130.16 185.056 125.712 184.912 120.808 184.936C115.904 184.96 111.456 185.16 108.248 185.352L104.448 185.584C103.983 185.637 103.515 185.653 103.048 185.632C103.502 185.523 103.966 185.453 104.432 185.424C105.328 185.32 106.624 185.192 108.224 185.056C111.424 184.792 115.888 184.552 120.8 184.52C125.712 184.488 130.168 184.688 133.384 184.92C134.984 185.04 136.288 185.152 137.184 185.248C137.649 185.269 138.111 185.322 138.568 185.408Z" fill="#263238"/>
<path d="M140.136 170.272C140.136 170.384 134.928 169.032 128.568 167.256C122.208 165.48 117.08 163.96 117.112 163.848C117.144 163.736 122.32 165.08 128.68 166.856C135.04 168.632 140.168 170.16 140.136 170.272Z" fill="#263238"/>
<path d="M143.488 157.6C143.359 157.592 143.233 157.565 143.112 157.52L142.048 157.2C141.136 156.912 139.816 156.464 138.208 155.88C134.006 154.337 129.889 152.575 125.872 150.6C121.857 148.623 117.95 146.433 114.168 144.04C112.72 143.12 111.56 142.352 110.776 141.8L109.88 141.152C109.68 141 109.576 140.92 109.584 140.904C109.705 140.953 109.82 141.014 109.928 141.088L110.872 141.664C111.672 142.176 112.856 142.904 114.32 143.792C117.256 145.568 121.368 147.912 126.056 150.192C130.744 152.472 135.112 154.328 138.312 155.576C139.912 156.192 141.2 156.68 142.104 157.016L143.136 157.408C143.258 157.462 143.376 157.526 143.488 157.6Z" fill="#263238"/>
<path d="M151.016 144.8C150.952 144.888 146.904 142.152 141.976 138.68C137.048 135.208 133.104 132.32 133.176 132.224C133.248 132.128 137.288 134.872 142.224 138.344C147.16 141.816 151.08 144.728 151.016 144.8Z" fill="#263238"/>
<path d="M135.104 105.936C135.104 105.936 135.216 106 135.408 106.152L136.208 106.856L139.16 109.464L148.848 118.112L158.576 126.712L161.52 129.328L162.32 130.056C162.417 130.135 162.503 130.227 162.576 130.328C162.576 130.328 162.464 130.272 162.264 130.12L161.464 129.456C160.736 128.872 159.704 128.008 158.432 126.936C155.888 124.792 152.416 121.792 148.616 118.424C144.816 115.056 141.416 111.952 139.016 109.68C137.8 108.544 136.824 107.624 136.152 106.968L135.392 106.216C135.2 106.04 135.088 105.944 135.104 105.936Z" fill="#263238"/>
<path d="M160.056 106.664C160.056 106.664 160.272 106.84 160.6 107.216C160.928 107.592 161.4 108.144 161.952 108.816C163.064 110.208 164.544 112.176 166.08 114.416C167.616 116.656 168.904 118.752 169.792 120.296C170.24 121.096 170.592 121.696 170.816 122.136C170.954 122.355 171.062 122.592 171.136 122.84C170.55 122.077 170.015 121.275 169.536 120.44C168.584 118.936 167.256 116.88 165.728 114.64C164.2 112.4 162.76 110.424 161.728 108.992C161.125 108.25 160.567 107.473 160.056 106.664Z" fill="#263238"/>
<g opacity="0.2">
<path d="M128.08 99.856L162.888 130.328L171.536 123.408L151.344 92.464C151.344 92.464 149.792 93.6 145.744 94.752C141.88 95.864 130.4 96.16 128.08 99.856Z" fill="black"/>
</g>
<g opacity="0.2">
<path d="M166.824 74.08L183.816 116.616L194.68 113.216L191.056 76.32C191.056 76.32 189.192 76.76 185.04 76.232C181.016 75.72 171.264 71.904 166.824 74.08Z" fill="black"/>
</g>
<g opacity="0.3">
<path d="M212.136 65.176L213.28 111.368L223.456 111.856L233.76 76.4C231.619 75.9749 229.583 75.1322 227.768 73.92C224.248 71.664 217.064 64.8 212.136 65.176Z" fill="black"/>
</g>
<g opacity="0.2">
<path d="M256.52 73.9041L239.632 116.488L248.8 120.88L272.04 92.1921C270.293 90.7174 268.804 88.9629 267.632 87.0001C265.44 83.4561 261.664 75.3201 256.52 73.9041Z" fill="black"/>
</g>
<g opacity="0.2">
<path d="M296.184 100.472L264.728 133.272L271.736 142.72L302.472 122.208C301.46 120.344 300.775 118.32 300.448 116.224C299.712 112.224 299.608 104.96 296.184 100.472Z" fill="black"/>
</g>
<g opacity="0.2">
<path d="M321.016 137.48L278.656 154.912L282.168 165.736L319.024 161.736C319.024 161.736 318.792 160.6 319.28 156.448C319.744 152.424 324 143.432 321.016 137.48Z" fill="black"/>
</g>
<g opacity="0.2">
<path d="M330.4 183.632L284.216 185.232L283.832 195.416L319.032 205.72C319.266 204.254 319.736 202.835 320.424 201.52C323.048 196.624 330.4 189.712 330.4 183.632Z" fill="black"/>
</g>
<g opacity="0.2">
<path d="M321.88 227.296L279.36 210.728L275.064 220L304 242.904C305.521 241.447 307.204 240.17 309.016 239.096C312.536 236.848 320.904 233.208 321.88 227.296Z" fill="black"/>
</g>
<g opacity="0.2">
<path d="M259.344 226.64L248.816 235.44C249.616 236.24 263.64 260.112 272.288 274.848C272.4 274.751 272.518 274.66 272.64 274.576C278.328 270.768 288.456 272.296 294.168 268.528L259.344 226.64Z" fill="black"/>
<path d="M240 243.344L224.288 248.704L231.728 291.36C232.211 291.19 232.706 291.053 233.208 290.952C240.616 289.488 250.384 295.936 257.208 293.112C258.142 292.711 259.011 292.172 259.784 291.512L240 243.344Z" fill="black"/>
<path d="M211.312 302.08L213.816 246.352L200.216 242.904L190.112 290.904L190.48 290.968C197.52 292.336 203.928 301.6 211.312 302.08Z" fill="black"/>
<path d="M177.152 236.888C177.152 236.888 159.2 260.936 149.808 273.88C150.243 274.099 150.665 274.342 151.072 274.608C157.24 278.736 159.568 290.232 166.504 293.112C166.824 293.24 167.152 293.344 167.48 293.44L192.56 245.968L177.152 236.888Z" fill="black"/>
<path d="M158.728 217.528L120.44 243.84C120.584 244.032 120.744 244.216 120.872 244.416C125.032 250.624 122.816 262.136 128.072 267.4C128.557 267.877 129.094 268.298 129.672 268.656C143.2 253.408 167.488 226.032 168.368 225.08L158.728 217.528Z" fill="black"/>
<path d="M149.952 198.736L104.68 206.048C105.408 213.312 99.68 222.48 102.376 228.976C102.538 229.373 102.734 229.756 102.96 230.12C118.8 222.232 151.896 205.824 153.272 205.736L149.952 198.736Z" fill="black"/>
<path d="M147.48 173.52L104.688 161.176C104.648 161.544 104.6 161.912 104.536 162.272C103.112 169.472 93.384 176.024 93.384 183.632C93.3862 184.139 93.429 184.644 93.512 185.144H145.744L147.48 173.52Z" fill="black"/>
<path d="M102.552 137.944C118.552 146.512 149.808 163.848 149.808 163.848L157.504 149.232L121.36 122.032C121.2 122.312 121.048 122.6 120.872 122.832C116.8 128.904 105.656 131.272 102.552 137.944Z" fill="black"/>
</g>
<path d="M330.32 183.632L330.272 183.12C330.253 182.618 330.183 182.12 330.064 181.632C329.598 179.714 328.785 177.897 327.664 176.272C326.288 174.064 324.208 171.592 322.064 168.464C320.853 166.8 319.924 164.949 319.312 162.984C318.791 160.69 318.791 158.309 319.312 156.016C319.76 153.576 320.488 151.064 321.12 148.4C321.752 145.736 322.344 142.856 321.752 139.912C321.417 138.422 320.734 137.032 319.76 135.856C318.715 134.659 317.521 133.599 316.208 132.704C313.552 130.816 310.496 129.312 307.576 127.344C306.065 126.37 304.693 125.197 303.496 123.856C302.321 122.401 301.467 120.713 300.992 118.904C299.968 115.264 299.736 111.376 298.96 107.488C298.621 105.508 297.953 103.599 296.984 101.84C295.932 100.069 294.335 98.6853 292.432 97.896C290.468 97.1066 288.411 96.569 286.312 96.296C284.192 95.944 282.016 95.696 279.84 95.312C277.611 94.9905 275.449 94.3068 273.44 93.288C271.448 92.0906 269.761 90.4476 268.512 88.488C267.184 86.584 266.04 84.536 264.824 82.512C263.659 80.4411 262.264 78.5087 260.664 76.752C259.015 74.9748 256.767 73.8718 254.352 73.656C251.885 73.5647 249.419 73.8534 247.04 74.512C244.64 75.096 242.176 75.808 239.656 76.28C237.109 76.8803 234.451 76.8308 231.928 76.136C229.468 75.171 227.168 73.8415 225.104 72.192C222.968 70.592 220.888 68.992 218.608 67.568C216.328 66.144 213.744 65.112 211.056 65.416H210.552C210.384 65.416 210.224 65.488 210.064 65.52C209.736 65.6 209.4 65.656 209.08 65.752C208.436 65.9569 207.805 66.2027 207.192 66.488C205.955 67.0765 204.767 67.764 203.64 68.544C201.368 70.144 199.216 71.888 196.88 73.472C195.717 74.2861 194.486 74.9981 193.2 75.6C191.882 76.1894 190.472 76.5441 189.032 76.648C186.145 76.6665 183.272 76.2594 180.504 75.44C177.717 74.6443 174.874 74.0586 172 73.688C170.565 73.5467 169.116 73.6441 167.712 73.976C166.314 74.3647 165.024 75.071 163.944 76.04C161.736 77.968 160.2 80.56 158.664 83.104C157.214 85.7679 155.519 88.2908 153.6 90.64C152.584 91.8037 151.364 92.7716 150 93.496C148.607 94.1544 147.145 94.6535 145.64 94.984C142.632 95.648 139.56 95.928 136.528 96.472C133.496 97.016 130.4 97.872 128.208 100C127.15 101.127 126.333 102.458 125.808 103.912C125.278 105.378 124.89 106.892 124.648 108.432C124.088 111.52 123.848 114.688 123.048 117.8C122.704 119.379 122.13 120.9 121.344 122.312C120.516 123.711 119.43 124.941 118.144 125.936C115.616 127.968 112.744 129.472 109.992 131.152C108.613 131.982 107.29 132.901 106.032 133.904C104.78 134.904 103.727 136.131 102.928 137.52C102.166 138.935 101.78 140.521 101.808 142.128C101.836 143.743 102.027 145.351 102.376 146.928C103.048 150.128 104.064 153.272 104.608 156.528C104.93 158.199 104.995 159.909 104.8 161.6C104.573 163.286 104.03 164.915 103.2 166.4C101.528 169.32 99.352 171.888 97.424 174.608C96.4339 175.948 95.5714 177.379 94.848 178.88C94.0554 180.344 93.6403 181.983 93.6403 183.648C93.6403 185.313 94.0554 186.952 94.848 188.416C95.5702 189.918 96.4327 191.348 97.424 192.688C99.352 195.408 101.528 197.976 103.2 200.896C104.015 202.354 104.557 203.948 104.8 205.6C105.003 207.268 104.949 208.957 104.64 210.608C104.104 213.896 103.088 217.048 102.408 220.248C102.062 221.825 101.871 223.433 101.84 225.048C101.808 226.657 102.191 228.246 102.952 229.664C103.745 231.057 104.796 232.287 106.048 233.288C107.306 234.291 108.629 235.21 110.008 236.04C112.76 237.72 115.608 239.24 118.168 241.256C119.452 242.253 120.537 243.483 121.368 244.88C122.16 246.287 122.734 247.805 123.072 249.384C123.824 252.504 124.08 255.672 124.672 258.76C124.92 260.3 125.311 261.813 125.84 263.28C126.353 264.733 127.156 266.067 128.2 267.2C130.416 269.352 133.536 270.208 136.528 270.752C139.52 271.296 142.632 271.552 145.64 272.24C147.147 272.572 148.612 273.071 150.008 273.728C151.37 274.455 152.59 275.423 153.608 276.584C155.507 278.937 157.186 281.46 158.624 284.12C160.16 286.664 161.696 289.256 163.904 291.184C164.983 292.151 166.269 292.857 167.664 293.248C169.08 293.605 170.545 293.724 172 293.6C174.869 293.214 177.706 292.618 180.488 291.816C183.257 290.99 186.134 290.58 189.024 290.6C190.464 290.709 191.874 291.066 193.192 291.656C194.477 292.26 195.708 292.972 196.872 293.784C199.208 295.384 201.352 297.152 203.632 298.704C204.754 299.489 205.939 300.18 207.176 300.768C207.79 301.052 208.42 301.298 209.064 301.504C209.392 301.592 209.72 301.656 210.048 301.736L210.544 301.84H211.04C213.736 302.144 216.328 301.04 218.6 299.688C220.872 298.336 222.96 296.632 225.088 295.064C227.155 293.415 229.458 292.085 231.92 291.12C234.444 290.429 237.1 290.38 239.648 290.976C242.168 291.456 244.6 292.168 247.032 292.752C249.415 293.403 251.883 293.692 254.352 293.608C256.764 293.384 259.008 292.279 260.656 290.504C262.251 288.74 263.646 286.806 264.816 284.736C266.024 282.72 267.168 280.672 268.496 278.76C269.753 276.804 271.441 275.161 273.432 273.96C275.44 272.94 277.602 272.259 279.832 271.944C282.016 271.552 284.184 271.304 286.304 270.96C288.405 270.674 290.461 270.123 292.424 269.32C294.325 268.528 295.921 267.145 296.976 265.376C297.939 263.615 298.604 261.706 298.944 259.728C299.744 255.84 299.952 251.944 300.984 248.304C301.455 246.495 302.309 244.809 303.488 243.36C304.681 242.015 306.054 240.842 307.568 239.872C310.488 237.904 313.544 236.4 316.192 234.512C317.511 233.618 318.708 232.556 319.752 231.352C320.725 230.179 321.405 228.792 321.736 227.304C322.015 225.867 322.056 224.394 321.856 222.944C321.691 221.554 321.44 220.175 321.104 218.816C320.464 216.152 319.744 213.64 319.296 211.2C318.775 208.906 318.775 206.525 319.296 204.232C319.911 202.268 320.84 200.418 322.048 198.752C324.216 195.624 326.304 193.152 327.648 190.944C328.77 189.32 329.584 187.503 330.048 185.584C330.168 185.096 330.237 184.598 330.256 184.096L330.304 183.592C330.304 183.592 330.304 183.76 330.304 184.096C330.289 184.6 330.224 185.101 330.112 185.592C329.657 187.526 328.842 189.358 327.712 190.992C326.344 193.216 324.272 195.696 322.112 198.824C320.912 200.477 319.995 202.318 319.4 204.272C318.88 206.541 318.88 208.899 319.4 211.168C319.848 213.568 320.576 216.104 321.224 218.768C321.573 220.138 321.84 221.527 322.024 222.928C322.223 224.397 322.183 225.888 321.904 227.344C321.57 228.866 320.879 230.286 319.888 231.488C318.834 232.705 317.627 233.781 316.296 234.688C313.624 236.592 310.576 238.104 307.672 240.064C306.189 241.027 304.844 242.187 303.672 243.512C302.517 244.939 301.682 246.598 301.224 248.376C300.208 251.976 299.984 255.864 299.2 259.776C298.862 261.786 298.188 263.725 297.208 265.512C296.127 267.333 294.489 268.758 292.536 269.576C290.553 270.39 288.475 270.949 286.352 271.24C284.224 271.592 282.048 271.84 279.88 272.232C277.679 272.546 275.544 273.219 273.56 274.224C271.625 275.398 269.983 276.999 268.76 278.904C267.448 280.8 266.304 282.84 265.088 284.872C263.911 286.963 262.505 288.916 260.896 290.696C259.195 292.53 256.875 293.67 254.384 293.896C251.88 293.994 249.376 293.706 246.96 293.04C244.52 292.456 242.088 291.752 239.592 291.28C237.1 290.697 234.502 290.743 232.032 291.416C229.608 292.372 227.34 293.685 225.304 295.312C223.184 296.872 221.096 298.552 218.792 299.96C218.192 300.28 217.624 300.656 217 300.92C216.688 301.064 216.384 301.216 216.072 301.344L215.104 301.688C213.791 302.139 212.397 302.302 211.016 302.168L210.496 302.128C210.328 302.128 210.16 302.056 209.984 302.024C209.648 301.944 209.304 301.88 208.976 301.784C208.311 301.579 207.662 301.327 207.032 301.032C205.777 300.436 204.572 299.738 203.432 298.944C201.136 297.344 198.984 295.6 196.672 294.024C195.523 293.227 194.311 292.526 193.048 291.928C191.77 291.359 190.403 291.016 189.008 290.912C186.156 290.899 183.318 291.306 180.584 292.12C177.773 292.947 174.904 293.559 172 293.952C170.516 294.097 169.019 293.997 167.568 293.656C166.114 293.251 164.773 292.517 163.648 291.512C161.376 289.52 159.824 286.904 158.288 284.352C156.865 281.712 155.199 279.211 153.312 276.88C152.329 275.753 151.147 274.818 149.824 274.12C148.461 273.472 147.027 272.984 145.552 272.664C142.576 272.008 139.512 271.728 136.456 271.176C134.916 270.92 133.403 270.524 131.936 269.992C130.448 269.446 129.087 268.602 127.936 267.512C126.844 266.346 126.007 264.964 125.48 263.456C124.94 261.966 124.541 260.429 124.288 258.864C123.728 255.752 123.488 252.584 122.688 249.512C122.356 247.973 121.795 246.493 121.024 245.12C120.214 243.763 119.156 242.572 117.904 241.608C115.424 239.616 112.56 238.112 109.8 236.424C108.408 235.584 107.071 234.654 105.8 233.64C104.506 232.603 103.42 231.33 102.6 229.888C101.81 228.413 101.413 226.76 101.448 225.088C101.467 223.432 101.66 221.783 102.024 220.168C102.704 216.968 103.72 213.768 104.248 210.568C104.55 208.956 104.601 207.307 104.4 205.68C104.158 204.063 103.615 202.505 102.8 201.088C101.2 198.208 98.992 195.656 97.048 192.912C96.0349 191.545 95.1486 190.088 94.4 188.56C93.5863 187.039 93.1605 185.341 93.1605 183.616C93.1605 181.891 93.5863 180.193 94.4 178.672C95.1383 177.148 96.0168 175.697 97.024 174.336C98.968 171.592 101.136 169.04 102.768 166.168C103.582 164.747 104.125 163.187 104.368 161.568C104.555 159.94 104.501 158.293 104.208 156.68C103.672 153.48 102.656 150.28 101.976 147.08C101.619 145.466 101.428 143.82 101.408 142.168C101.376 140.495 101.776 138.842 102.568 137.368C103.393 135.932 104.479 134.663 105.768 133.624C107.037 132.607 108.374 131.677 109.768 130.84C112.528 129.152 115.368 127.64 117.872 125.656C119.121 124.692 120.177 123.5 120.984 122.144C121.751 120.768 122.309 119.285 122.64 117.744C123.384 114.672 123.64 111.512 124.24 108.4C124.49 106.836 124.886 105.298 125.424 103.808C125.906 102.283 126.746 100.894 127.873 99.7589C129 98.6235 130.382 97.7736 131.904 97.28C133.371 96.7483 134.884 96.352 136.424 96.096C139.48 95.544 142.544 95.296 145.52 94.616C146.992 94.2866 148.425 93.7984 149.792 93.16C151.111 92.4566 152.29 91.5186 153.272 90.392C155.159 88.061 156.825 85.5596 158.248 82.92C159.784 80.368 161.336 77.752 163.616 75.768C164.747 74.7478 166.1 74.0055 167.568 73.6C169.02 73.2625 170.516 73.1625 172 73.304C174.886 73.6898 177.739 74.2888 180.536 75.096C183.268 75.9163 186.107 76.3261 188.96 76.312C190.342 76.2018 191.695 75.8554 192.96 75.288C194.227 74.6976 195.44 73.9962 196.584 73.192C198.904 71.592 201.056 69.84 203.352 68.28C204.491 67.4831 205.695 66.7846 206.952 66.192C207.581 65.8988 208.228 65.645 208.888 65.432C209.224 65.336 209.568 65.28 209.904 65.2L210.408 65.088H210.928C212.309 64.9575 213.703 65.1211 215.016 65.568L215.984 65.912C216.296 66.04 216.6 66.192 216.912 66.336C217.544 66.608 218.112 66.976 218.704 67.296C221.016 68.704 223.096 70.384 225.224 71.944C227.258 73.5695 229.523 74.8826 231.944 75.84C234.413 76.5166 237.012 76.5633 239.504 75.976C242 75.512 244.432 74.808 246.872 74.224C249.288 73.5595 251.792 73.2682 254.296 73.36C256.787 73.5888 259.105 74.7281 260.808 76.56C262.419 78.3429 263.828 80.2988 265.008 82.392C266.224 84.416 267.36 86.464 268.672 88.352C269.893 90.2609 271.535 91.8647 273.472 93.04C275.454 94.0483 277.59 94.7214 279.792 95.032C281.96 95.424 284.136 95.672 286.264 96.024C288.387 96.3183 290.464 96.8774 292.448 97.688C294.401 98.5054 296.041 99.9268 297.128 101.744C298.105 103.532 298.778 105.471 299.12 107.48C299.92 111.392 300.128 115.28 301.136 118.88C301.599 120.656 302.433 122.314 303.584 123.744C304.753 125.073 306.099 126.236 307.584 127.2C310.488 129.16 313.544 130.672 316.208 132.576C317.539 133.483 318.746 134.558 319.8 135.776C320.792 136.975 321.485 138.393 321.824 139.912C322.103 141.37 322.143 142.865 321.944 144.336C321.76 145.735 321.493 147.121 321.144 148.488C320.504 151.16 319.768 153.664 319.32 156.096C318.8 158.365 318.8 160.723 319.32 162.992C319.915 164.946 320.832 166.787 322.032 168.44C324.184 171.576 326.256 174.04 327.632 176.272C328.76 177.907 329.574 179.739 330.032 181.672C330.144 182.163 330.209 182.664 330.224 183.168C330.32 183.456 330.32 183.632 330.32 183.632Z" fill="#263238"/>
<path d="M189.6 293.6C189.712 293.6 186.76 305.6 183.008 320.336C179.256 335.072 176.12 347 176.008 346.976C175.896 346.952 178.848 334.976 182.6 320.232C186.352 305.488 189.52 293.536 189.6 293.6Z" fill="#263238"/>
<path d="M211.856 256.256C251.965 256.256 284.48 223.741 284.48 183.632C284.48 143.523 251.965 111.008 211.856 111.008C171.747 111.008 139.232 143.523 139.232 183.632C139.232 223.741 171.747 256.256 211.856 256.256Z" fill="white"/>
<path d="M167.136 158.464C166.136 159.464 160.632 169.48 160.128 177.744C159.624 186.008 160.816 232.392 160.816 232.392L161.032 235.472C174.104 250.76 221.624 273.512 264.424 235.392L266.824 206.856L259.76 146.448L235.2 140.44L229.448 131.12L191.112 140.096L187.688 148.176L167.136 158.464Z" fill="#455A64"/>
<path d="M226.816 106.832C228.504 100.552 230.16 94.232 230.744 87.76C231.328 81.288 230.792 74.6 228.216 68.632C227.824 67.728 224.584 61.688 223.608 61.84C222.912 61.944 225.008 67.624 224.688 68.24C221.608 74.216 221.048 81.232 221.936 87.896C222.852 94.3675 224.489 100.716 226.816 106.824" fill="#263238"/>
<path d="M226.176 82.032C225.872 65.736 216.128 52.336 199.848 53.096L198.344 53.256C191.062 54.0236 184.336 57.504 179.504 63.0049C174.672 68.5058 172.087 75.6241 172.264 82.944C172.616 97.064 173.176 112.664 174.064 120.168C175.896 135.696 191.664 136.48 191.664 136.48L192.392 146.696L199.072 153.952L230.04 134.752L226.176 82.032Z" fill="#FFBF9D"/>
<path d="M191.704 136.6C191.704 136.6 201.568 136.144 211.32 128.48C211.32 128.48 208.056 142.568 192.392 142.8L191.704 136.6Z" fill="#FF9A6C"/>
<path d="M181.216 95.6081C181.271 96.1921 181.553 96.731 182.003 97.1082C182.452 97.4855 183.031 97.6708 183.616 97.6241C183.901 97.617 184.181 97.553 184.441 97.4359C184.7 97.3188 184.934 97.1509 185.128 96.9422C185.322 96.7335 185.472 96.4881 185.569 96.2205C185.667 95.953 185.71 95.6686 185.696 95.3841C185.639 94.8009 185.356 94.2633 184.907 93.8864C184.459 93.5095 183.88 93.3235 183.296 93.3681C183.011 93.3741 182.73 93.4374 182.47 93.5541C182.21 93.6708 181.976 93.8387 181.782 94.0476C181.588 94.2565 181.438 94.5024 181.34 94.7704C181.243 95.0385 181.201 95.3233 181.216 95.6081Z" fill="#263238"/>
<path d="M176.272 89.048C176.576 89.304 178.128 87.8881 180.52 87.6401C182.912 87.3921 184.784 88.4401 185.016 88.0801C185.128 87.9441 184.792 87.4481 183.968 86.9681C182.859 86.3635 181.591 86.1149 180.336 86.2561C179.093 86.3841 177.923 86.9022 176.992 87.7361C176.312 88.3841 176.12 88.928 176.272 89.048Z" fill="#263238"/>
<path d="M202.328 93.816C202.383 94.4 202.665 94.9389 203.115 95.3161C203.564 95.6934 204.143 95.8787 204.728 95.832C205.013 95.8249 205.293 95.7609 205.553 95.6437C205.812 95.5266 206.046 95.3588 206.24 95.1501C206.434 94.9414 206.584 94.696 206.681 94.4284C206.779 94.1608 206.822 93.8764 206.808 93.592C206.753 93.0074 206.471 92.4677 206.022 92.0892C205.573 91.7106 204.993 91.5235 204.408 91.568C204.123 91.5761 203.842 91.6411 203.583 91.7591C203.323 91.8771 203.089 92.0457 202.896 92.255C202.702 92.4644 202.552 92.7102 202.455 92.9783C202.357 93.2463 202.314 93.5311 202.328 93.816Z" fill="#263238"/>
<path d="M199.784 87.5441C200.088 87.8081 201.648 86.3841 204.032 86.1361C206.416 85.8881 208.304 86.9361 208.528 86.5841C208.64 86.4401 208.312 85.9441 207.488 85.4721C206.377 84.8644 205.106 84.6157 203.848 84.7601C202.604 84.8827 201.431 85.4015 200.504 86.2401C199.832 86.8801 199.64 87.4321 199.784 87.5441Z" fill="#263238"/>
<path d="M193.144 106.816C193.144 106.68 191.632 106.576 189.192 106.52C188.576 106.52 187.984 106.464 187.84 106.056C187.719 105.433 187.795 104.787 188.056 104.208L189.368 99.4081C191.176 92.5281 192.416 86.8961 192.144 86.8241C191.872 86.7521 190.168 92.2721 188.36 99.1601L187.128 104C186.827 104.768 186.804 105.617 187.064 106.4C187.173 106.608 187.329 106.789 187.519 106.928C187.709 107.066 187.928 107.16 188.16 107.2C188.508 107.243 188.86 107.243 189.208 107.2C191.648 107.096 193.152 106.952 193.144 106.816Z" fill="#263238"/>
<path d="M200.352 107.728C199.96 107.728 200.232 110.336 198.208 112.416C196.184 114.496 193.408 114.496 193.408 114.864C193.408 115.024 194.072 115.304 195.248 115.208C196.763 115.066 198.179 114.395 199.248 113.312C200.268 112.265 200.842 110.862 200.848 109.4C200.888 108.304 200.528 107.696 200.352 107.728Z" fill="#263238"/>
<path d="M198.896 77.832C199.2 78.456 201.552 77.896 204.392 77.944C207.232 77.992 209.584 78.512 209.888 77.888C210.024 77.592 209.568 77.024 208.584 76.488C207.279 75.8552 205.847 75.5264 204.396 75.5264C202.945 75.5264 201.513 75.8552 200.208 76.488C199.2 76.968 198.76 77.536 198.896 77.832Z" fill="#263238"/>
<path d="M176.424 81.0001C176.896 81.4961 178.488 80.7601 180.464 80.5201C182.44 80.2801 184.16 80.5201 184.464 79.8961C184.608 79.6001 184.288 79.096 183.504 78.648C182.454 78.1358 181.275 77.9467 180.117 78.1048C178.959 78.2629 177.875 78.761 177 79.536C176.376 80.168 176.208 80.7521 176.424 81.0001Z" fill="#263238"/>
<path d="M226.12 93.6881C226.376 93.5441 236.472 89.4001 237.256 100.088C238.04 110.776 227.2 109.32 227.128 109.016C227.056 108.712 226.12 93.6881 226.12 93.6881Z" fill="#FFBF9D"/>
<path d="M230.088 104.736C230.136 104.736 230.28 104.848 230.608 104.968C231.064 105.126 231.563 105.1 232 104.896C233.096 104.4 233.912 102.544 233.824 100.616C233.787 99.699 233.544 98.8021 233.112 97.9921C232.987 97.6667 232.785 97.3765 232.523 97.1466C232.261 96.9167 231.947 96.7538 231.608 96.6721C231.391 96.6292 231.167 96.6643 230.973 96.7712C230.78 96.878 230.631 97.0498 230.552 97.2561C230.424 97.5681 230.512 97.7761 230.456 97.8001C230.4 97.8241 230.216 97.6321 230.264 97.1921C230.306 96.9216 230.439 96.6733 230.64 96.4881C230.918 96.2458 231.28 96.1223 231.648 96.1441C232.092 96.1965 232.515 96.3635 232.876 96.6285C233.236 96.8936 233.521 97.2476 233.704 97.6561C234.229 98.5457 234.526 99.5517 234.568 100.584C234.656 102.736 233.704 104.832 232.168 105.384C231.888 105.489 231.588 105.53 231.291 105.504C230.993 105.478 230.705 105.385 230.448 105.232C230.128 104.992 230.056 104.752 230.088 104.736Z" fill="#FF9A6C"/>
<path d="M178.032 64.8C176.248 63.952 181.072 58.024 185.232 55.824C191.464 52.504 201.144 50.08 207.168 51.376C214.424 52.976 220.568 56.096 224.56 62.352C228.552 68.608 230.384 76.072 230.656 83.488C230.736 85.752 230.656 88.12 229.568 90.104C228.232 92.56 225.464 94.232 225.8 97.48C225.88 98.0665 225.842 98.663 225.688 99.2345C225.534 99.806 225.268 100.341 224.904 100.808C223.08 103.016 220.568 101.216 219.344 99.328C216.728 95.328 216.144 90.328 215.632 85.544C215.264 82.152 214.904 78.68 215.632 75.352C216.032 73.536 216.768 71.8 217.072 69.968C217.376 68.136 217.192 66.096 215.976 64.688C215.693 64.3927 215.382 64.1249 215.048 63.888C213.474 62.68 211.606 61.914 209.637 61.6693C207.668 61.4246 205.67 61.71 203.848 62.496C197.968 65.008 187.912 68.848 185.096 66.976C181.056 64.288 180 62.4 180 62.4L178.032 64.8Z" fill="#263238"/>
<path d="M167.136 158.464C166.52 159.32 157.776 162.224 154.456 167.752C151.136 173.28 147.856 198.096 147.856 198.096L145.744 214.4C149.904 220.976 155.488 229.688 161.408 235.832L167.136 158.464Z" fill="#455A64"/>
<g opacity="0.3">
<path d="M232.84 182.4C233.076 185.746 233.71 189.052 234.728 192.248C235.872 195.392 237.88 198.352 240.816 199.976C242.04 200.648 243.424 201.096 244.456 202.056C245.488 203.016 246.112 204.568 247.112 205.696C248.363 206.937 249.907 207.842 251.6 208.328C256.366 210.075 261.423 210.89 266.496 210.728C266.656 209.016 266.664 202.728 266.824 201.008L232.84 182.4Z" fill="black"/>
</g>
<path d="M259.76 146.448C259.76 146.448 270.784 149.712 274.016 154.408C277.248 159.104 282.968 177.312 284.144 180.688C285.32 184.064 284.288 191.888 282.088 197.488C279.888 203.088 276.064 207.96 269.464 208.688C262.864 209.416 252.432 205.608 250.08 203.088C247.728 200.568 246.76 194.992 246.76 194.992C249.691 194.478 252.581 193.754 255.408 192.824" fill="#455A64"/>
<path d="M255.408 192.88L255.272 192.936L254.856 193.088C254.488 193.216 253.936 193.4 253.208 193.616C251.104 194.245 248.968 194.758 246.808 195.152L246.896 195.032C247.164 196.406 247.541 197.757 248.024 199.072C248.287 199.817 248.606 200.542 248.976 201.24C249.356 201.986 249.856 202.664 250.456 203.248C251.133 203.829 251.88 204.324 252.68 204.72C253.525 205.163 254.393 205.561 255.28 205.912C257.184 206.673 259.141 207.294 261.136 207.768C263.289 208.296 265.495 208.578 267.712 208.608C268.289 208.613 268.866 208.586 269.44 208.528C270.019 208.462 270.593 208.36 271.16 208.224C272.322 207.963 273.439 207.529 274.472 206.936C276.624 205.692 278.431 203.929 279.728 201.808C281.1 199.606 282.15 197.219 282.848 194.72C283.417 192.8 283.843 190.84 284.12 188.856C284.418 186.935 284.514 184.989 284.408 183.048C284.345 182.114 284.154 181.194 283.84 180.312C283.536 179.416 283.24 178.528 282.952 177.648L281.232 172.504C280.096 169.16 278.976 166 277.856 163.064C276.873 160.332 275.688 157.677 274.312 155.12C273.676 154.033 272.827 153.086 271.816 152.336C270.935 151.635 269.998 151.006 269.016 150.456C267.438 149.556 265.805 148.754 264.128 148.056C262.752 147.488 261.664 147.088 260.928 146.824L260.088 146.528C259.988 146.501 259.892 146.464 259.8 146.416C259.901 146.429 260 146.453 260.096 146.488L260.952 146.744C261.704 146.984 262.808 147.36 264.2 147.904C265.892 148.572 267.54 149.344 269.136 150.216C270.136 150.766 271.091 151.395 271.992 152.096C273.033 152.86 273.909 153.826 274.568 154.936C275.975 157.507 277.184 160.181 278.184 162.936C279.328 165.864 280.456 169.032 281.6 172.376C282.168 174.048 282.744 175.768 283.336 177.52C283.632 178.392 283.928 179.28 284.224 180.176C284.553 181.088 284.755 182.041 284.824 183.008C284.938 184.978 284.844 186.954 284.544 188.904C284.261 190.909 283.831 192.89 283.256 194.832C282.541 197.374 281.464 199.799 280.056 202.032C278.722 204.209 276.863 206.017 274.648 207.288C273.581 207.895 272.43 208.34 271.232 208.608C270.649 208.747 270.059 208.851 269.464 208.92C268.872 208.92 268.28 209.024 267.704 209C265.457 208.959 263.221 208.664 261.04 208.12C259.027 207.637 257.054 207.004 255.136 206.224C254.243 205.863 253.37 205.454 252.52 205C251.697 204.588 250.928 204.074 250.232 203.472C249.613 202.859 249.099 202.148 248.712 201.368C248.341 200.659 248.023 199.924 247.76 199.168C247.291 197.83 246.925 196.458 246.664 195.064V194.96H246.768C249.584 194.472 251.744 193.92 253.208 193.52L254.872 193.048L255.296 192.928C255.36 192.88 255.408 192.872 255.408 192.88Z" fill="#263238"/>
<path d="M275.64 186.984C275.56 186.984 275.304 185.624 274.384 183.592C273.175 180.95 271.488 178.555 269.408 176.528C268.255 175.431 266.951 174.504 265.536 173.776L264.568 173.344C264.248 173.2 263.912 173.136 263.608 173.032C263.032 172.851 262.44 172.727 261.84 172.664L261.44 172.608H260.352C259.976 172.602 259.601 172.634 259.232 172.704C258.911 172.769 258.584 172.803 258.256 172.808C258.559 172.683 258.876 172.594 259.2 172.544C259.572 172.438 259.957 172.382 260.344 172.376H261.064H261.456L261.872 172.424C262.492 172.467 263.106 172.574 263.704 172.744C264.04 172.828 264.371 172.93 264.696 173.048L265.704 173.48C267.172 174.205 268.521 175.149 269.704 176.28C271.83 178.334 273.515 180.801 274.656 183.528C274.86 183.992 275.036 184.467 275.184 184.952C275.307 185.316 275.409 185.688 275.488 186.064C275.568 186.365 275.619 186.673 275.64 186.984Z" fill="#263238"/>
<path d="M281.656 177.088C281.202 175.924 280.645 174.802 279.992 173.736C278.334 171.205 275.853 169.326 272.968 168.416C269.584 167.384 266.296 167.704 264 167.92L261.256 168.248C260.923 168.308 260.586 168.337 260.248 168.336C260.564 168.212 260.895 168.129 261.232 168.088C261.872 167.96 262.832 167.792 263.968 167.632C267 167.102 270.111 167.233 273.088 168.016C274.718 168.506 276.232 169.322 277.536 170.416C278.604 171.324 279.517 172.399 280.24 173.6C280.735 174.388 281.13 175.235 281.416 176.12C281.533 176.432 281.614 176.757 281.656 177.088Z" fill="#263238"/>
<path d="M273.344 165.256C269.032 164.239 264.524 164.416 260.304 165.768C260.857 165.407 261.465 165.137 262.104 164.968C263.618 164.503 265.185 164.234 266.768 164.168C268.351 164.112 269.934 164.257 271.48 164.6C272.131 164.724 272.759 164.945 273.344 165.256Z" fill="#263238"/>
<path d="M255.504 149.2C255.568 149.2 255.408 150.328 255.28 152.136C254.944 156.767 255.344 161.422 256.464 165.928L256.176 166.024C255.848 165.104 255.592 164.352 255.424 163.824C255.32 163.567 255.244 163.298 255.2 163.024C255.363 163.272 255.492 163.542 255.584 163.824C255.8 164.328 256.096 165.064 256.464 165.976L256.176 166.064C255.543 163.851 255.122 161.582 254.92 159.288C254.711 156.916 254.732 154.528 254.984 152.16C255.088 151.256 255.208 150.56 255.304 150.024C255.331 149.741 255.398 149.464 255.504 149.2Z" fill="#263238"/>
<path d="M239.912 128.68C239.912 128.68 234.192 128.68 233.472 135.552C232.92 140.832 233.472 145.952 233.472 148.272C233.472 150.592 232.456 158.808 232.456 158.808C232.456 158.808 228.552 162.272 228.616 166.432C228.68 170.592 231.656 171.888 231.656 171.888C231.157 173.177 231.047 174.584 231.34 175.935C231.633 177.286 232.316 178.521 233.304 179.488C233.304 179.488 231.648 183.32 233.008 185.888C233.792 187.165 235.015 188.113 236.448 188.552C236.213 189.058 236.09 189.608 236.086 190.165C236.082 190.722 236.198 191.274 236.425 191.783C236.653 192.292 236.987 192.746 237.405 193.114C237.823 193.483 238.315 193.758 238.848 193.92C240.77 194.515 242.783 194.762 244.792 194.648L249.064 194.568L252.824 196.648C252.824 196.648 259.272 193.84 259.432 190.04L259.6 186.24C259.6 186.24 257.752 180 257.6 178C257.448 176 259.088 171.224 258.096 169.08C257.104 166.936 253.64 165.672 253.968 162.68C254.296 159.688 253.64 158.024 252.152 156.368C250.664 154.712 244.096 151.416 244.096 151.416C244.096 151.416 242.408 146.616 242.408 143.328C242.408 140.04 245.696 129.936 239.912 128.68Z" fill="#FFBF9D"/>
<path d="M243.768 152.664C243.276 153.066 242.739 153.41 242.168 153.688C241.16 154.28 239.768 155.064 238.168 155.912C236.568 156.76 235.176 157.512 234.168 158.032C233.623 158.361 233.044 158.63 232.44 158.832C232.93 158.425 233.467 158.079 234.04 157.8C235.048 157.208 236.44 156.424 238.04 155.576C239.64 154.728 241.032 153.976 242.04 153.456C242.584 153.127 243.164 152.861 243.768 152.664Z" fill="#FF9A6C"/>
<path d="M247.528 165.6C247.528 165.6 247.368 165.784 247.024 166.048C246.547 166.423 246.05 166.773 245.536 167.096C243.847 168.179 242.051 169.085 240.176 169.8C238.301 170.527 236.358 171.063 234.376 171.4C233.576 171.52 232.992 171.592 232.568 171.616C232.346 171.658 232.118 171.658 231.896 171.616C231.896 171.552 232.824 171.424 234.296 171.112C236.237 170.704 238.144 170.148 240 169.448C241.852 168.732 243.644 167.87 245.36 166.872C246.061 166.411 246.784 165.987 247.528 165.6Z" fill="#FF9A6C"/>
<path d="M252.44 161.48C252.544 161.52 252.328 162.28 251.64 162.864C250.952 163.448 250.216 163.624 250.192 163.52C250.168 163.416 250.76 163.112 251.36 162.552C251.96 161.992 252.328 161.432 252.44 161.48Z" fill="#FF9A6C"/>
<path d="M250.08 176.92C249.312 177.293 248.508 177.588 247.68 177.8C245.712 178.386 243.708 178.843 241.68 179.168C239.653 179.498 237.605 179.691 235.552 179.744C234.701 179.81 233.845 179.783 233 179.664C233.84 179.544 234.687 179.475 235.536 179.456C237.136 179.344 239.256 179.136 241.616 178.76C243.976 178.384 246.08 177.896 247.6 177.512C248.414 177.267 249.243 177.069 250.08 176.92Z" fill="#FF9A6C"/>
<path d="M255.312 176C255.433 175.583 255.58 175.175 255.752 174.776C256.069 173.799 256.176 172.765 256.064 171.744C255.937 170.723 255.587 169.743 255.04 168.872C254.781 168.524 254.543 168.161 254.328 167.784C254.328 167.744 254.784 168.04 255.288 168.704C255.935 169.582 256.343 170.612 256.472 171.695C256.601 172.777 256.447 173.875 256.024 174.88C255.696 175.608 255.352 176 255.312 176Z" fill="#FF9A6C"/>
<path d="M250.4 188.504C249.745 188.746 249.062 188.907 248.368 188.984C246.706 189.246 245.026 189.377 243.344 189.376C241.658 189.373 239.975 189.231 238.312 188.952C237.617 188.874 236.935 188.71 236.28 188.464C236.975 188.476 237.668 188.543 238.352 188.664C240.01 188.851 241.676 188.95 243.344 188.96C245.009 188.957 246.673 188.866 248.328 188.688C249.013 188.572 249.706 188.51 250.4 188.504Z" fill="#FF9A6C"/>
<path d="M240.224 143.408C240.224 143.456 239.96 143.672 239.424 143.864C238.718 144.1 237.969 144.176 237.231 144.088C236.492 143.999 235.782 143.748 235.152 143.352C234.672 143.04 234.448 142.768 234.48 142.728C235.365 143.172 236.307 143.49 237.28 143.672C238.269 143.725 239.26 143.636 240.224 143.408Z" fill="#FF9A6C"/>
<path d="M256.496 176.456C256.568 176.653 256.601 176.862 256.592 177.072C256.592 177.641 256.525 178.207 256.392 178.76C256.24 179.456 255.976 180.264 255.72 181.16C255.41 182.098 255.309 183.091 255.424 184.072C255.56 185.088 256.32 185.904 256.44 186.936C256.522 187.808 256.298 188.682 255.808 189.408C255.51 189.889 255.164 190.34 254.776 190.752C254.504 191.048 254.336 191.192 254.312 191.176C254.288 191.16 254.864 190.472 255.552 189.264C255.966 188.583 256.143 187.784 256.056 186.992C255.96 186.12 255.192 185.304 255.008 184.144C254.886 183.102 255.004 182.046 255.352 181.056C255.632 180.152 255.92 179.36 256.104 178.656C256.288 177.933 256.419 177.198 256.496 176.456Z" fill="#FF9A6C"/>
<path d="M258.648 181.48C258.778 181.714 258.87 181.968 258.92 182.232C259.064 182.72 259.256 183.44 259.432 184.336C259.649 185.39 259.778 186.46 259.816 187.536C259.885 188.881 259.638 190.223 259.096 191.456C258.466 192.636 257.632 193.695 256.632 194.584C255.836 195.309 254.989 195.975 254.096 196.576C253.336 197.096 252.696 197.48 252.248 197.728C252.028 197.877 251.788 197.995 251.536 198.08C251.496 198.024 252.456 197.416 253.936 196.336C254.794 195.711 255.612 195.033 256.384 194.304C257.335 193.435 258.13 192.409 258.736 191.272C259.249 190.095 259.492 188.819 259.448 187.536C259.429 186.477 259.333 185.421 259.16 184.376C258.848 182.592 258.584 181.496 258.648 181.48Z" fill="#263238"/>
<path d="M198.288 154.848C197.955 154.652 197.644 154.421 197.36 154.16L194.96 152.152L193.296 150.752C193.012 150.486 192.694 150.257 192.352 150.072C192.186 149.987 192.002 149.943 191.816 149.943C191.63 149.943 191.446 149.987 191.28 150.072C190.592 150.432 190.128 151.312 189.544 152.048C188.96 152.784 188.384 153.648 187.776 154.448C186.816 155.744 185.88 156.984 185.024 158.136L184.504 158.824L184.672 157.976C185.131 155.597 185.797 153.263 186.664 151C186.984 150.2 187.272 149.512 187.464 149.072C187.554 148.836 187.675 148.612 187.824 148.408C187.769 148.652 187.691 148.89 187.592 149.12C187.424 149.576 187.176 150.24 186.888 151.088C186.106 153.362 185.493 155.691 185.056 158.056L184.696 157.896L187.44 154.2L189.208 151.8L190.056 150.672C190.325 150.271 190.688 149.942 191.112 149.712C191.334 149.614 191.576 149.569 191.818 149.579C192.061 149.588 192.298 149.653 192.512 149.768C192.875 149.973 193.211 150.223 193.512 150.512L195.112 151.952L197.448 154.056C197.748 154.297 198.029 154.562 198.288 154.848Z" fill="#263238"/>
<path d="M232.064 148.088C231.971 148.193 231.867 148.287 231.752 148.368L230.808 149.104L227.28 151.752L215.512 160.416L215.336 160.544L215.216 160.36C215.12 160.216 215.024 160.056 214.92 159.904L209.016 150.576L209.232 150.648C206.957 151.552 204.762 152.646 202.672 153.92C201.92 154.376 201.336 154.72 200.936 155.016C200.742 155.163 200.532 155.289 200.312 155.392C200.482 155.216 200.669 155.057 200.872 154.92C201.256 154.64 201.824 154.232 202.568 153.744C204.632 152.401 206.818 151.254 209.096 150.32L209.232 150.264L209.312 150.384C211.048 153.08 213.088 156.272 215.272 159.68C215.376 159.832 215.472 159.992 215.568 160.136L215.264 160.08L227.112 151.52L230.712 148.968L231.704 148.296C231.936 148.144 232.056 148.072 232.064 148.088Z" fill="#263238"/>
<path d="M160.264 179.904C160.3 180.088 160.317 180.276 160.312 180.464C160.312 180.88 160.312 181.416 160.352 182.064C160.352 183.512 160.424 185.536 160.464 188.016C160.56 193.04 160.76 200.016 161.024 207.656C161.288 215.296 161.44 222.272 161.456 227.304C161.456 229.824 161.456 231.856 161.456 233.264C161.456 233.928 161.456 234.472 161.416 234.864C161.425 235.054 161.411 235.245 161.376 235.432C161.364 235.243 161.364 235.053 161.376 234.864C161.376 234.456 161.376 233.912 161.328 233.264C161.328 231.808 161.264 229.784 161.216 227.312C161.128 222.28 160.92 215.312 160.664 207.664C160.408 200.016 160.248 193.048 160.232 188.016C160.232 185.504 160.232 183.464 160.232 182.064C160.232 181.392 160.232 180.856 160.232 180.464C160.231 180.277 160.241 180.09 160.264 179.904Z" fill="#263238"/>
<path d="M198.552 252.16C198.525 252.088 198.509 252.013 198.504 251.936C198.504 251.76 198.504 251.536 198.432 251.256C198.368 250.624 198.28 249.752 198.176 248.64C197.952 246.368 197.696 243.04 197.44 239C197.184 234.96 196.968 230.064 196.832 224.672C196.696 219.28 196.68 213.336 196.832 207.072C196.984 200.808 197.264 194.912 197.632 189.528C198 184.144 198.432 179.296 198.864 175.24C199.296 171.184 199.664 167.896 200.016 165.64C200.176 164.528 200.296 163.664 200.384 163.04C200.432 162.76 200.464 162.536 200.496 162.36C200.5 162.283 200.516 162.208 200.544 162.136C200.556 162.213 200.556 162.291 200.544 162.368C200.544 162.544 200.504 162.768 200.48 163.048C200.408 163.672 200.312 164.544 200.184 165.656C199.912 167.928 199.56 171.208 199.168 175.256C198.776 179.304 198.368 184.16 198.024 189.544C197.68 194.928 197.416 200.856 197.272 207.08C197.128 213.304 197.168 219.232 197.272 224.624C197.376 230.016 197.576 234.864 197.8 238.936C198.024 243.008 198.224 246.312 198.4 248.584C198.472 249.696 198.536 250.576 198.576 251.208C198.576 251.488 198.576 251.712 198.616 251.888C198.602 251.98 198.581 252.071 198.552 252.16Z" fill="#263238"/>
<path d="M174.712 121.216L173.864 121.776L171.368 123.376C170.264 124.088 168.968 125.104 167.448 126.224C166.648 126.8 165.912 127.496 165.048 128.2L163.744 129.296C163.296 129.68 162.872 130.096 162.416 130.536C157.991 134.663 154.105 139.332 150.848 144.432L149.424 146.72C148.92 147.48 148.536 148.32 148.072 149.12C147.608 149.92 147.152 150.784 146.736 151.664C146.32 152.544 145.936 153.448 145.504 154.36C145.304 154.816 145.08 155.264 144.888 155.736C144.696 156.208 144.528 156.688 144.344 157.176C143.984 158.136 143.6 159.104 143.248 160.104C142.656 162.128 141.904 164.176 141.456 166.36C139.175 175.81 138.795 185.618 140.336 195.216C142.342 207.576 147.517 219.204 155.357 228.967C163.197 238.73 173.434 246.293 185.07 250.92C196.705 255.546 209.34 257.078 221.744 255.364C234.147 253.651 245.895 248.751 255.84 241.144C258.351 239.214 260.739 237.13 262.992 234.904L264.592 233.208C265.136 232.648 265.664 232.08 266.192 231.48L267.712 229.728C268.192 229.12 268.664 228.512 269.144 227.912C276.38 218.591 281.208 207.631 283.2 196C283.668 193.3 283.986 190.576 284.152 187.84C284.232 186.488 284.232 185.152 284.28 183.84C284.328 182.528 284.184 181.192 284.136 179.888C284.136 179.24 284.08 178.584 284.056 177.936C284.032 177.288 283.912 176.656 283.848 176.016C283.688 174.744 283.536 173.48 283.384 172.232C283.232 170.984 282.904 169.768 282.664 168.552C282.463 167.346 282.196 166.152 281.864 164.976L280.872 161.512C280.716 160.944 280.527 160.385 280.304 159.84C280.096 159.288 279.888 158.736 279.688 158.192C279.264 157.112 278.888 156.008 278.432 154.992C277.976 153.976 277.48 152.944 277.008 151.944C273.529 144.711 268.861 138.113 263.2 132.424C258.911 128.162 254.124 124.431 248.944 121.312L245.888 119.56C245.427 119.29 244.951 119.044 244.464 118.824L243.12 118.184L240.72 117.048C240 116.68 239.288 116.472 238.688 116.248L235.904 115.176L234.96 114.792L235.92 115.136L238.712 116.176C239.32 116.416 240.032 116.624 240.76 116.976L243.16 118.096L244.512 118.736C245.002 118.95 245.48 119.191 245.944 119.456L249.008 121.2C254.222 124.299 259.039 128.023 263.352 132.288C269.047 137.973 273.747 144.574 277.256 151.816C277.728 152.832 278.208 153.848 278.696 154.888C279.184 155.928 279.496 157.024 279.96 158.088L280.584 159.736C280.807 160.284 280.996 160.845 281.152 161.416C281.488 162.568 281.824 163.72 282.16 164.896C282.507 166.077 282.787 167.276 283 168.488C283.24 169.704 283.528 170.888 283.736 172.176C283.944 173.464 284.04 174.704 284.2 175.984C284.272 176.624 284.376 177.264 284.416 177.912C284.456 178.56 284.472 179.216 284.496 179.872C284.544 181.184 284.616 182.504 284.648 183.872C284.68 185.24 284.608 186.552 284.52 187.872C283.703 202.516 278.449 216.565 269.456 228.152L268 229.976L266.464 231.744C265.968 232.344 265.432 232.92 264.864 233.48L263.264 235.192C260.997 237.431 258.593 239.526 256.064 241.464C246.071 249.103 234.268 254.023 221.808 255.743C209.347 257.463 196.654 255.925 184.965 251.279C173.275 246.634 162.989 239.038 155.109 229.234C147.229 219.43 142.023 207.751 140 195.336C139.188 190.332 138.92 185.254 139.2 180.192C139.402 175.523 140.074 170.886 141.208 166.352C141.656 164.16 142.416 162.112 143.008 160.072C143.368 159.08 143.76 158.104 144.128 157.136C144.312 156.656 144.496 156.176 144.672 155.696C144.848 155.216 145.096 154.776 145.296 154.312C145.72 153.4 146.096 152.504 146.536 151.616C146.976 150.728 147.448 149.904 147.888 149.064C148.328 148.224 148.744 147.392 149.248 146.624L150.688 144.336C153.962 139.228 157.879 134.563 162.344 130.456C162.8 130.032 163.224 129.6 163.672 129.216L164.984 128.12C165.848 127.424 166.584 126.736 167.384 126.16C168.944 125.04 170.224 124.04 171.336 123.336L173.856 121.736C174.4 121.384 174.712 121.216 174.712 121.216Z" fill="#263238"/>
</svg>
