<svg width="15" height="23" viewBox="0 0 15 23" fill="none" xmlns="http://www.w3.org/2000/svg">
<path d="M3.13251 11.3238C4.2578 12.267 5.6771 12.8187 7.16417 12.8909C8.65124 12.963 10.1205 12.5515 11.3377 11.7219C12.5549 10.8923 13.45 9.69238 13.8803 8.31342C14.3106 6.93446 14.2513 5.45583 13.712 4.11323C13.1726 2.77062 12.1842 1.64134 10.9043 0.905376C9.62438 0.169416 8.12663 -0.130852 6.6498 0.0524356C5.17296 0.235723 3.80206 0.892015 2.75561 1.9167C1.70916 2.94138 1.04741 4.27547 0.87584 5.7063C0.282507 8.62468 0.289173 12.1026 1.64917 15.2193C3.08584 18.5085 5.98417 21.2818 10.9325 22.5346C11.0919 22.5765 11.2582 22.5875 11.422 22.5668C11.5857 22.5462 11.7436 22.4944 11.8866 22.4144C12.0295 22.3344 12.1547 22.2277 12.2548 22.1007C12.3548 21.9736 12.4279 21.8286 12.4698 21.6741C12.5116 21.5195 12.5214 21.3585 12.4985 21.2002C12.4756 21.042 12.4206 20.8898 12.3365 20.7522C12.2525 20.6147 12.1411 20.4947 12.0088 20.399C11.8765 20.3034 11.726 20.2341 11.5658 20.195C7.34751 19.126 5.07917 16.8574 3.95251 14.2776C3.54615 13.3322 3.27044 12.339 3.13251 11.3238Z" fill="#5D46E8"/>
</svg>
