<svg width="15" height="24" viewBox="0 0 15 24" fill="none" xmlns="http://www.w3.org/2000/svg">
<path d="M11.5322 11.8243C10.4069 12.7675 8.98761 13.3192 7.50054 13.3913C6.01347 13.4635 4.54423 13.052 3.32703 12.2224C2.10984 11.3928 1.21474 10.1929 0.784426 8.81391C0.354113 7.43495 0.413354 5.95632 0.952707 4.61371C1.49206 3.27111 2.48047 2.14182 3.7604 1.40586C5.04032 0.669904 6.53807 0.369637 8.01491 0.552924C9.49174 0.736211 10.8626 1.3925 11.9091 2.41718C12.9555 3.44187 13.6173 4.77595 13.7889 6.20679C14.3822 9.12517 14.3755 12.6031 13.0155 15.7198C11.5789 19.009 8.68053 21.7823 3.7322 23.0351C3.57284 23.077 3.40648 23.088 3.24272 23.0673C3.07897 23.0467 2.92106 22.9949 2.77812 22.9149C2.63518 22.8348 2.51005 22.7282 2.40995 22.6012C2.30986 22.4741 2.23678 22.3291 2.19494 22.1745C2.1531 22.02 2.14333 21.859 2.1662 21.7007C2.18907 21.5425 2.24412 21.3902 2.32816 21.2527C2.41221 21.1152 2.5236 20.9951 2.65588 20.8995C2.78816 20.8039 2.93872 20.7345 3.09887 20.6955C7.3172 19.6265 9.58553 17.3579 10.7122 14.7781C11.1186 13.8327 11.3943 12.8395 11.5322 11.8243Z" fill="#5D46E8"/>
</svg>
