<svg width="49" height="48" viewBox="0 0 49 48" fill="none" xmlns="http://www.w3.org/2000/svg">
<circle cx="24.9556" cy="24" r="23.5" stroke="white"/>
<path d="M24.9554 15.6666C27.2196 15.6666 27.5021 15.6749 28.3904 15.7166C29.2779 15.7583 29.8821 15.8974 30.4137 16.1041C30.9637 16.3158 31.4271 16.6024 31.8904 17.0649C32.3141 17.4815 32.642 17.9854 32.8512 18.5416C33.0571 19.0724 33.1971 19.6774 33.2387 20.5649C33.2779 21.4533 33.2887 21.7358 33.2887 23.9999C33.2887 26.2641 33.2804 26.5466 33.2387 27.4349C33.1971 28.3224 33.0571 28.9266 32.8512 29.4583C32.6426 30.0147 32.3147 30.5188 31.8904 30.9349C31.4737 31.3585 30.9698 31.6864 30.4137 31.8958C29.8829 32.1016 29.2779 32.2416 28.3904 32.2833C27.5021 32.3224 27.2196 32.3333 24.9554 32.3333C22.6912 32.3333 22.4087 32.3249 21.5204 32.2833C20.6329 32.2416 20.0287 32.1016 19.4971 31.8958C18.9407 31.687 18.4367 31.359 18.0204 30.9349C17.5966 30.5184 17.2687 30.0145 17.0596 29.4583C16.8529 28.9274 16.7137 28.3224 16.6721 27.4349C16.6329 26.5466 16.6221 26.2641 16.6221 23.9999C16.6221 21.7358 16.6304 21.4533 16.6721 20.5649C16.7137 19.6766 16.8529 19.0733 17.0596 18.5416C17.2681 17.9851 17.5961 17.481 18.0204 17.0649C18.4368 16.6409 18.9408 16.313 19.4971 16.1041C20.0287 15.8974 20.6321 15.7583 21.5204 15.7166C22.4087 15.6774 22.6912 15.6666 24.9554 15.6666ZM24.9554 19.8333C23.8503 19.8333 22.7905 20.2722 22.0091 21.0536C21.2277 21.835 20.7887 22.8949 20.7887 23.9999C20.7887 25.105 21.2277 26.1648 22.0091 26.9462C22.7905 27.7276 23.8503 28.1666 24.9554 28.1666C26.0605 28.1666 27.1203 27.7276 27.9017 26.9462C28.6831 26.1648 29.1221 25.105 29.1221 23.9999C29.1221 22.8949 28.6831 21.835 27.9017 21.0536C27.1203 20.2722 26.0605 19.8333 24.9554 19.8333V19.8333ZM30.3721 19.6249C30.3721 19.3487 30.2623 19.0837 30.067 18.8884C29.8716 18.693 29.6067 18.5833 29.3304 18.5833C29.0541 18.5833 28.7892 18.693 28.5938 18.8884C28.3985 19.0837 28.2887 19.3487 28.2887 19.6249C28.2887 19.9012 28.3985 20.1661 28.5938 20.3615C28.7892 20.5568 29.0541 20.6666 29.3304 20.6666C29.6067 20.6666 29.8716 20.5568 30.067 20.3615C30.2623 20.1661 30.3721 19.9012 30.3721 19.6249ZM24.9554 21.4999C25.6184 21.4999 26.2543 21.7633 26.7232 22.2322C27.192 22.701 27.4554 23.3369 27.4554 23.9999C27.4554 24.663 27.192 25.2988 26.7232 25.7677C26.2543 26.2365 25.6184 26.4999 24.9554 26.4999C24.2924 26.4999 23.6565 26.2365 23.1876 25.7677C22.7188 25.2988 22.4554 24.663 22.4554 23.9999C22.4554 23.3369 22.7188 22.701 23.1876 22.2322C23.6565 21.7633 24.2924 21.4999 24.9554 21.4999V21.4999Z" fill="white"/>
</svg>
