<svg width="49" height="48" viewBox="0 0 49 48" fill="none" xmlns="http://www.w3.org/2000/svg">
<circle cx="24.9556" cy="24" r="23.5" stroke="white"/>
<path d="M24.9554 15.6665C27.2196 15.6665 27.5021 15.6748 28.3904 15.7165C29.2779 15.7582 29.8821 15.8973 30.4137 16.104C30.9637 16.3157 31.4271 16.6023 31.8904 17.0648C32.3141 17.4814 32.642 17.9853 32.8512 18.5415C33.0571 19.0723 33.1971 19.6773 33.2387 20.5648C33.2779 21.4532 33.2887 21.7357 33.2887 23.9998C33.2887 26.264 33.2804 26.5465 33.2387 27.4348C33.1971 28.3223 33.0571 28.9265 32.8512 29.4582C32.6426 30.0147 32.3147 30.5187 31.8904 30.9348C31.4737 31.3584 30.9698 31.6863 30.4137 31.8957C29.8829 32.1015 29.2779 32.2415 28.3904 32.2832C27.5021 32.3223 27.2196 32.3332 24.9554 32.3332C22.6912 32.3332 22.4087 32.3248 21.5204 32.2832C20.6329 32.2415 20.0287 32.1015 19.4971 31.8957C18.9407 31.6869 18.4367 31.359 18.0204 30.9348C17.5966 30.5183 17.2687 30.0144 17.0596 29.4582C16.8529 28.9273 16.7137 28.3223 16.6721 27.4348C16.6329 26.5465 16.6221 26.264 16.6221 23.9998C16.6221 21.7357 16.6304 21.4532 16.6721 20.5648C16.7137 19.6765 16.8529 19.0732 17.0596 18.5415C17.2681 17.985 17.5961 17.4809 18.0204 17.0648C18.4368 16.6409 18.9408 16.3129 19.4971 16.104C20.0287 15.8973 20.6321 15.7582 21.5204 15.7165C22.4087 15.6773 22.6912 15.6665 24.9554 15.6665ZM24.9554 19.8332C23.8503 19.8332 22.7905 20.2722 22.0091 21.0536C21.2277 21.835 20.7887 22.8948 20.7887 23.9998C20.7887 25.1049 21.2277 26.1647 22.0091 26.9461C22.7905 27.7275 23.8503 28.1665 24.9554 28.1665C26.0605 28.1665 27.1203 27.7275 27.9017 26.9461C28.6831 26.1647 29.1221 25.1049 29.1221 23.9998C29.1221 22.8948 28.6831 21.835 27.9017 21.0536C27.1203 20.2722 26.0605 19.8332 24.9554 19.8332ZM30.3721 19.6248C30.3721 19.3486 30.2623 19.0836 30.067 18.8883C29.8716 18.6929 29.6067 18.5832 29.3304 18.5832C29.0541 18.5832 28.7892 18.6929 28.5938 18.8883C28.3985 19.0836 28.2887 19.3486 28.2887 19.6248C28.2887 19.9011 28.3985 20.1661 28.5938 20.3614C28.7892 20.5568 29.0541 20.6665 29.3304 20.6665C29.6067 20.6665 29.8716 20.5568 30.067 20.3614C30.2623 20.1661 30.3721 19.9011 30.3721 19.6248ZM24.9554 21.4998C25.6184 21.4998 26.2543 21.7632 26.7232 22.2321C27.192 22.7009 27.4554 23.3368 27.4554 23.9998C27.4554 24.6629 27.192 25.2988 26.7232 25.7676C26.2543 26.2364 25.6184 26.4998 24.9554 26.4998C24.2924 26.4998 23.6565 26.2364 23.1876 25.7676C22.7188 25.2988 22.4554 24.6629 22.4554 23.9998C22.4554 23.3368 22.7188 22.7009 23.1876 22.2321C23.6565 21.7632 24.2924 21.4998 24.9554 21.4998Z" fill="white"/>
</svg>
