<svg width="49" height="48" viewBox="0 0 49 48" fill="none" xmlns="http://www.w3.org/2000/svg">
<circle cx="24.9556" cy="24" r="23.5" stroke="white"/>
<path d="M21.2381 32.2509C28.7856 32.2509 32.9143 25.9971 32.9143 20.5834C32.9143 20.4084 32.9143 20.2309 32.9068 20.0559C33.7106 19.474 34.4044 18.7536 34.9556 17.9284C34.2047 18.2594 33.409 18.4776 32.5943 18.5759C33.4525 18.0629 34.0952 17.2558 34.4031 16.3046C33.5968 16.7823 32.7143 17.1176 31.7943 17.2959C31.1758 16.6371 30.3573 16.2008 29.4657 16.0543C28.574 15.9079 27.659 16.0595 26.8622 16.4858C26.0655 16.9121 25.4316 17.5892 25.0586 18.4122C24.6857 19.2352 24.5945 20.1583 24.7993 21.0384C23.1677 20.9566 21.5716 20.5327 20.1144 19.7943C18.6572 19.0559 17.3714 18.0194 16.3406 16.7521C15.8172 17.656 15.6575 18.7251 15.8939 19.7424C16.1302 20.7598 16.7449 21.649 17.6131 22.2296C16.9625 22.2075 16.3262 22.0328 15.7556 21.7196V21.7759C15.7567 22.7227 16.0847 23.6401 16.6842 24.3731C17.2836 25.106 18.1178 25.6095 19.0456 25.7984C18.6934 25.8954 18.3296 25.9437 17.9643 25.9421C17.7068 25.9429 17.4498 25.919 17.1968 25.8709C17.459 26.6859 17.9697 27.3986 18.6571 27.909C19.3446 28.4194 20.1745 28.7019 21.0306 28.7171C19.5763 29.8594 17.7798 30.4789 15.9306 30.4759C15.6047 30.4772 15.2791 30.4585 14.9556 30.4196C16.8325 31.6162 19.0122 32.2516 21.2381 32.2509Z" fill="white"/>
</svg>
